G04 #@! TF.GenerationSoftware,KiCad,Pcbnew,(2017-08-09 revision 8a1a3ed36)-makepkg*
G04 #@! TF.CreationDate,2018-07-12T11:09:50+02:00*
G04 #@! TF.ProjectId,HVSC5,48565343352E6B696361645F70636200,rev?*
G04 #@! TF.SameCoordinates,Original*
G04 #@! TF.FileFunction,Other,User*
%FSLAX46Y46*%
G04 Gerber Fmt 4.6, Leading zero omitted, Abs format (unit mm)*
G04 Created by KiCad (PCBNEW (2017-08-09 revision 8a1a3ed36)-makepkg) date 07/12/18 11:09:50*
%MOMM*%
%LPD*%
G01*
G04 APERTURE LIST*
%ADD10C,0.100000*%
%ADD11C,0.150000*%
%ADD12C,0.300000*%
%ADD13C,0.400000*%
%ADD14C,0.050000*%
G04 APERTURE END LIST*
D10*
D11*
X177002200Y-166007200D02*
X177002200Y-198007200D01*
X285002200Y-198007200D01*
X285002200Y-166007200D01*
X177002200Y-166007200D01*
D10*
D11*
X10000000Y-10000000D02*
X10000000Y-200007200D01*
X287002200Y-200007200D01*
X287002200Y-10000000D01*
X10000000Y-10000000D01*
D10*
D11*
X12000000Y-12000000D02*
X12000000Y-198007200D01*
X285002200Y-198007200D01*
X285002200Y-12000000D01*
X12000000Y-12000000D01*
D10*
D11*
X60000000Y-12000000D02*
X60000000Y-10000000D01*
D10*
D11*
X110000000Y-12000000D02*
X110000000Y-10000000D01*
D10*
D11*
X160000000Y-12000000D02*
X160000000Y-10000000D01*
D10*
D11*
X210000000Y-12000000D02*
X210000000Y-10000000D01*
D10*
D11*
X260000000Y-12000000D02*
X260000000Y-10000000D01*
D10*
D11*
X36065476Y-11588095D02*
X35322619Y-11588095D01*
X35694047Y-11588095D02*
X35694047Y-10288095D01*
X35570238Y-10473809D01*
X35446428Y-10597619D01*
X35322619Y-10659523D01*
D10*
D11*
X85322619Y-10411904D02*
X85384523Y-10350000D01*
X85508333Y-10288095D01*
X85817857Y-10288095D01*
X85941666Y-10350000D01*
X86003571Y-10411904D01*
X86065476Y-10535714D01*
X86065476Y-10659523D01*
X86003571Y-10845238D01*
X85260714Y-11588095D01*
X86065476Y-11588095D01*
D10*
D11*
X135260714Y-10288095D02*
X136065476Y-10288095D01*
X135632142Y-10783333D01*
X135817857Y-10783333D01*
X135941666Y-10845238D01*
X136003571Y-10907142D01*
X136065476Y-11030952D01*
X136065476Y-11340476D01*
X136003571Y-11464285D01*
X135941666Y-11526190D01*
X135817857Y-11588095D01*
X135446428Y-11588095D01*
X135322619Y-11526190D01*
X135260714Y-11464285D01*
D10*
D11*
X185941666Y-10721428D02*
X185941666Y-11588095D01*
X185632142Y-10226190D02*
X185322619Y-11154761D01*
X186127380Y-11154761D01*
D10*
D11*
X236003571Y-10288095D02*
X235384523Y-10288095D01*
X235322619Y-10907142D01*
X235384523Y-10845238D01*
X235508333Y-10783333D01*
X235817857Y-10783333D01*
X235941666Y-10845238D01*
X236003571Y-10907142D01*
X236065476Y-11030952D01*
X236065476Y-11340476D01*
X236003571Y-11464285D01*
X235941666Y-11526190D01*
X235817857Y-11588095D01*
X235508333Y-11588095D01*
X235384523Y-11526190D01*
X235322619Y-11464285D01*
D10*
D11*
X285941666Y-10288095D02*
X285694047Y-10288095D01*
X285570238Y-10350000D01*
X285508333Y-10411904D01*
X285384523Y-10597619D01*
X285322619Y-10845238D01*
X285322619Y-11340476D01*
X285384523Y-11464285D01*
X285446428Y-11526190D01*
X285570238Y-11588095D01*
X285817857Y-11588095D01*
X285941666Y-11526190D01*
X286003571Y-11464285D01*
X286065476Y-11340476D01*
X286065476Y-11030952D01*
X286003571Y-10907142D01*
X285941666Y-10845238D01*
X285817857Y-10783333D01*
X285570238Y-10783333D01*
X285446428Y-10845238D01*
X285384523Y-10907142D01*
X285322619Y-11030952D01*
D10*
D11*
X60000000Y-198007200D02*
X60000000Y-200007200D01*
D10*
D11*
X110000000Y-198007200D02*
X110000000Y-200007200D01*
D10*
D11*
X160000000Y-198007200D02*
X160000000Y-200007200D01*
D10*
D11*
X210000000Y-198007200D02*
X210000000Y-200007200D01*
D10*
D11*
X260000000Y-198007200D02*
X260000000Y-200007200D01*
D10*
D11*
X36065476Y-199595295D02*
X35322619Y-199595295D01*
X35694047Y-199595295D02*
X35694047Y-198295295D01*
X35570238Y-198481009D01*
X35446428Y-198604819D01*
X35322619Y-198666723D01*
D10*
D11*
X85322619Y-198419104D02*
X85384523Y-198357200D01*
X85508333Y-198295295D01*
X85817857Y-198295295D01*
X85941666Y-198357200D01*
X86003571Y-198419104D01*
X86065476Y-198542914D01*
X86065476Y-198666723D01*
X86003571Y-198852438D01*
X85260714Y-199595295D01*
X86065476Y-199595295D01*
D10*
D11*
X135260714Y-198295295D02*
X136065476Y-198295295D01*
X135632142Y-198790533D01*
X135817857Y-198790533D01*
X135941666Y-198852438D01*
X136003571Y-198914342D01*
X136065476Y-199038152D01*
X136065476Y-199347676D01*
X136003571Y-199471485D01*
X135941666Y-199533390D01*
X135817857Y-199595295D01*
X135446428Y-199595295D01*
X135322619Y-199533390D01*
X135260714Y-199471485D01*
D10*
D11*
X185941666Y-198728628D02*
X185941666Y-199595295D01*
X185632142Y-198233390D02*
X185322619Y-199161961D01*
X186127380Y-199161961D01*
D10*
D11*
X236003571Y-198295295D02*
X235384523Y-198295295D01*
X235322619Y-198914342D01*
X235384523Y-198852438D01*
X235508333Y-198790533D01*
X235817857Y-198790533D01*
X235941666Y-198852438D01*
X236003571Y-198914342D01*
X236065476Y-199038152D01*
X236065476Y-199347676D01*
X236003571Y-199471485D01*
X235941666Y-199533390D01*
X235817857Y-199595295D01*
X235508333Y-199595295D01*
X235384523Y-199533390D01*
X235322619Y-199471485D01*
D10*
D11*
X285941666Y-198295295D02*
X285694047Y-198295295D01*
X285570238Y-198357200D01*
X285508333Y-198419104D01*
X285384523Y-198604819D01*
X285322619Y-198852438D01*
X285322619Y-199347676D01*
X285384523Y-199471485D01*
X285446428Y-199533390D01*
X285570238Y-199595295D01*
X285817857Y-199595295D01*
X285941666Y-199533390D01*
X286003571Y-199471485D01*
X286065476Y-199347676D01*
X286065476Y-199038152D01*
X286003571Y-198914342D01*
X285941666Y-198852438D01*
X285817857Y-198790533D01*
X285570238Y-198790533D01*
X285446428Y-198852438D01*
X285384523Y-198914342D01*
X285322619Y-199038152D01*
D10*
D11*
X10000000Y-60000000D02*
X12000000Y-60000000D01*
D10*
D11*
X10000000Y-110000000D02*
X12000000Y-110000000D01*
D10*
D11*
X10000000Y-160000000D02*
X12000000Y-160000000D01*
D10*
D11*
X10690476Y-35216666D02*
X11309523Y-35216666D01*
X10566666Y-35588095D02*
X11000000Y-34288095D01*
X11433333Y-35588095D01*
D10*
D11*
X11092857Y-84907142D02*
X11278571Y-84969047D01*
X11340476Y-85030952D01*
X11402380Y-85154761D01*
X11402380Y-85340476D01*
X11340476Y-85464285D01*
X11278571Y-85526190D01*
X11154761Y-85588095D01*
X10659523Y-85588095D01*
X10659523Y-84288095D01*
X11092857Y-84288095D01*
X11216666Y-84350000D01*
X11278571Y-84411904D01*
X11340476Y-84535714D01*
X11340476Y-84659523D01*
X11278571Y-84783333D01*
X11216666Y-84845238D01*
X11092857Y-84907142D01*
X10659523Y-84907142D01*
D10*
D11*
X11402380Y-135464285D02*
X11340476Y-135526190D01*
X11154761Y-135588095D01*
X11030952Y-135588095D01*
X10845238Y-135526190D01*
X10721428Y-135402380D01*
X10659523Y-135278571D01*
X10597619Y-135030952D01*
X10597619Y-134845238D01*
X10659523Y-134597619D01*
X10721428Y-134473809D01*
X10845238Y-134350000D01*
X11030952Y-134288095D01*
X11154761Y-134288095D01*
X11340476Y-134350000D01*
X11402380Y-134411904D01*
D10*
D11*
X10659523Y-185588095D02*
X10659523Y-184288095D01*
X10969047Y-184288095D01*
X11154761Y-184350000D01*
X11278571Y-184473809D01*
X11340476Y-184597619D01*
X11402380Y-184845238D01*
X11402380Y-185030952D01*
X11340476Y-185278571D01*
X11278571Y-185402380D01*
X11154761Y-185526190D01*
X10969047Y-185588095D01*
X10659523Y-185588095D01*
D10*
D11*
X287002200Y-60000000D02*
X285002200Y-60000000D01*
D10*
D11*
X287002200Y-110000000D02*
X285002200Y-110000000D01*
D10*
D11*
X287002200Y-160000000D02*
X285002200Y-160000000D01*
D10*
D11*
X285692676Y-35216666D02*
X286311723Y-35216666D01*
X285568866Y-35588095D02*
X286002200Y-34288095D01*
X286435533Y-35588095D01*
D10*
D11*
X286095057Y-84907142D02*
X286280771Y-84969047D01*
X286342676Y-85030952D01*
X286404580Y-85154761D01*
X286404580Y-85340476D01*
X286342676Y-85464285D01*
X286280771Y-85526190D01*
X286156961Y-85588095D01*
X285661723Y-85588095D01*
X285661723Y-84288095D01*
X286095057Y-84288095D01*
X286218866Y-84350000D01*
X286280771Y-84411904D01*
X286342676Y-84535714D01*
X286342676Y-84659523D01*
X286280771Y-84783333D01*
X286218866Y-84845238D01*
X286095057Y-84907142D01*
X285661723Y-84907142D01*
D10*
D11*
X286404580Y-135464285D02*
X286342676Y-135526190D01*
X286156961Y-135588095D01*
X286033152Y-135588095D01*
X285847438Y-135526190D01*
X285723628Y-135402380D01*
X285661723Y-135278571D01*
X285599819Y-135030952D01*
X285599819Y-134845238D01*
X285661723Y-134597619D01*
X285723628Y-134473809D01*
X285847438Y-134350000D01*
X286033152Y-134288095D01*
X286156961Y-134288095D01*
X286342676Y-134350000D01*
X286404580Y-134411904D01*
D10*
D11*
X285661723Y-185588095D02*
X285661723Y-184288095D01*
X285971247Y-184288095D01*
X286156961Y-184350000D01*
X286280771Y-184473809D01*
X286342676Y-184597619D01*
X286404580Y-184845238D01*
X286404580Y-185030952D01*
X286342676Y-185278571D01*
X286280771Y-185402380D01*
X286156961Y-185526190D01*
X285971247Y-185588095D01*
X285661723Y-185588095D01*
D10*
D11*
X200434342Y-193785771D02*
X200434342Y-192285771D01*
X200791485Y-192285771D01*
X201005771Y-192357200D01*
X201148628Y-192500057D01*
X201220057Y-192642914D01*
X201291485Y-192928628D01*
X201291485Y-193142914D01*
X201220057Y-193428628D01*
X201148628Y-193571485D01*
X201005771Y-193714342D01*
X200791485Y-193785771D01*
X200434342Y-193785771D01*
X202577200Y-193785771D02*
X202577200Y-193000057D01*
X202505771Y-192857200D01*
X202362914Y-192785771D01*
X202077200Y-192785771D01*
X201934342Y-192857200D01*
X202577200Y-193714342D02*
X202434342Y-193785771D01*
X202077200Y-193785771D01*
X201934342Y-193714342D01*
X201862914Y-193571485D01*
X201862914Y-193428628D01*
X201934342Y-193285771D01*
X202077200Y-193214342D01*
X202434342Y-193214342D01*
X202577200Y-193142914D01*
X203077200Y-192785771D02*
X203648628Y-192785771D01*
X203291485Y-192285771D02*
X203291485Y-193571485D01*
X203362914Y-193714342D01*
X203505771Y-193785771D01*
X203648628Y-193785771D01*
X204720057Y-193714342D02*
X204577200Y-193785771D01*
X204291485Y-193785771D01*
X204148628Y-193714342D01*
X204077200Y-193571485D01*
X204077200Y-193000057D01*
X204148628Y-192857200D01*
X204291485Y-192785771D01*
X204577200Y-192785771D01*
X204720057Y-192857200D01*
X204791485Y-193000057D01*
X204791485Y-193142914D01*
X204077200Y-193285771D01*
X205434342Y-193642914D02*
X205505771Y-193714342D01*
X205434342Y-193785771D01*
X205362914Y-193714342D01*
X205434342Y-193642914D01*
X205434342Y-193785771D01*
X205434342Y-192857200D02*
X205505771Y-192928628D01*
X205434342Y-193000057D01*
X205362914Y-192928628D01*
X205434342Y-192857200D01*
X205434342Y-193000057D01*
D10*
D11*
X177002200Y-194507200D02*
X285002200Y-194507200D01*
D10*
D11*
X178434342Y-196585771D02*
X178434342Y-195085771D01*
X179291485Y-196585771D02*
X178648628Y-195728628D01*
X179291485Y-195085771D02*
X178434342Y-195942914D01*
X179934342Y-196585771D02*
X179934342Y-195585771D01*
X179934342Y-195085771D02*
X179862914Y-195157200D01*
X179934342Y-195228628D01*
X180005771Y-195157200D01*
X179934342Y-195085771D01*
X179934342Y-195228628D01*
X181505771Y-196442914D02*
X181434342Y-196514342D01*
X181220057Y-196585771D01*
X181077200Y-196585771D01*
X180862914Y-196514342D01*
X180720057Y-196371485D01*
X180648628Y-196228628D01*
X180577200Y-195942914D01*
X180577200Y-195728628D01*
X180648628Y-195442914D01*
X180720057Y-195300057D01*
X180862914Y-195157200D01*
X181077200Y-195085771D01*
X181220057Y-195085771D01*
X181434342Y-195157200D01*
X181505771Y-195228628D01*
X182791485Y-196585771D02*
X182791485Y-195800057D01*
X182720057Y-195657200D01*
X182577200Y-195585771D01*
X182291485Y-195585771D01*
X182148628Y-195657200D01*
X182791485Y-196514342D02*
X182648628Y-196585771D01*
X182291485Y-196585771D01*
X182148628Y-196514342D01*
X182077200Y-196371485D01*
X182077200Y-196228628D01*
X182148628Y-196085771D01*
X182291485Y-196014342D01*
X182648628Y-196014342D01*
X182791485Y-195942914D01*
X184148628Y-196585771D02*
X184148628Y-195085771D01*
X184148628Y-196514342D02*
X184005771Y-196585771D01*
X183720057Y-196585771D01*
X183577200Y-196514342D01*
X183505771Y-196442914D01*
X183434342Y-196300057D01*
X183434342Y-195871485D01*
X183505771Y-195728628D01*
X183577200Y-195657200D01*
X183720057Y-195585771D01*
X184005771Y-195585771D01*
X184148628Y-195657200D01*
X186005771Y-195800057D02*
X186505771Y-195800057D01*
X186720057Y-196585771D02*
X186005771Y-196585771D01*
X186005771Y-195085771D01*
X186720057Y-195085771D01*
X187362914Y-196442914D02*
X187434342Y-196514342D01*
X187362914Y-196585771D01*
X187291485Y-196514342D01*
X187362914Y-196442914D01*
X187362914Y-196585771D01*
X188077200Y-196585771D02*
X188077200Y-195085771D01*
X188434342Y-195085771D01*
X188648628Y-195157200D01*
X188791485Y-195300057D01*
X188862914Y-195442914D01*
X188934342Y-195728628D01*
X188934342Y-195942914D01*
X188862914Y-196228628D01*
X188791485Y-196371485D01*
X188648628Y-196514342D01*
X188434342Y-196585771D01*
X188077200Y-196585771D01*
X189577200Y-196442914D02*
X189648628Y-196514342D01*
X189577200Y-196585771D01*
X189505771Y-196514342D01*
X189577200Y-196442914D01*
X189577200Y-196585771D01*
X190220057Y-196157200D02*
X190934342Y-196157200D01*
X190077200Y-196585771D02*
X190577200Y-195085771D01*
X191077200Y-196585771D01*
X191577200Y-196442914D02*
X191648628Y-196514342D01*
X191577200Y-196585771D01*
X191505771Y-196514342D01*
X191577200Y-196442914D01*
X191577200Y-196585771D01*
X194577200Y-196585771D02*
X194577200Y-195085771D01*
X194720057Y-196014342D02*
X195148628Y-196585771D01*
X195148628Y-195585771D02*
X194577200Y-196157200D01*
X195791485Y-196585771D02*
X195791485Y-195585771D01*
X195791485Y-195085771D02*
X195720057Y-195157200D01*
X195791485Y-195228628D01*
X195862914Y-195157200D01*
X195791485Y-195085771D01*
X195791485Y-195228628D01*
X197148628Y-196514342D02*
X197005771Y-196585771D01*
X196720057Y-196585771D01*
X196577200Y-196514342D01*
X196505771Y-196442914D01*
X196434342Y-196300057D01*
X196434342Y-195871485D01*
X196505771Y-195728628D01*
X196577200Y-195657200D01*
X196720057Y-195585771D01*
X197005771Y-195585771D01*
X197148628Y-195657200D01*
X198434342Y-196585771D02*
X198434342Y-195800057D01*
X198362914Y-195657200D01*
X198220057Y-195585771D01*
X197934342Y-195585771D01*
X197791485Y-195657200D01*
X198434342Y-196514342D02*
X198291485Y-196585771D01*
X197934342Y-196585771D01*
X197791485Y-196514342D01*
X197720057Y-196371485D01*
X197720057Y-196228628D01*
X197791485Y-196085771D01*
X197934342Y-196014342D01*
X198291485Y-196014342D01*
X198434342Y-195942914D01*
X199791485Y-196585771D02*
X199791485Y-195085771D01*
X199791485Y-196514342D02*
X199648628Y-196585771D01*
X199362914Y-196585771D01*
X199220057Y-196514342D01*
X199148628Y-196442914D01*
X199077200Y-196300057D01*
X199077200Y-195871485D01*
X199148628Y-195728628D01*
X199220057Y-195657200D01*
X199362914Y-195585771D01*
X199648628Y-195585771D01*
X199791485Y-195657200D01*
X202077200Y-197157200D02*
X202005771Y-197085771D01*
X201862914Y-196871485D01*
X201791485Y-196728628D01*
X201720057Y-196514342D01*
X201648628Y-196157200D01*
X201648628Y-195871485D01*
X201720057Y-195514342D01*
X201791485Y-195300057D01*
X201862914Y-195157200D01*
X202005771Y-194942914D01*
X202077200Y-194871485D01*
X202577200Y-195228628D02*
X202648628Y-195157200D01*
X202791485Y-195085771D01*
X203148628Y-195085771D01*
X203291485Y-195157200D01*
X203362914Y-195228628D01*
X203434342Y-195371485D01*
X203434342Y-195514342D01*
X203362914Y-195728628D01*
X202505771Y-196585771D01*
X203434342Y-196585771D01*
X204362914Y-195085771D02*
X204505771Y-195085771D01*
X204648628Y-195157200D01*
X204720057Y-195228628D01*
X204791485Y-195371485D01*
X204862914Y-195657200D01*
X204862914Y-196014342D01*
X204791485Y-196300057D01*
X204720057Y-196442914D01*
X204648628Y-196514342D01*
X204505771Y-196585771D01*
X204362914Y-196585771D01*
X204220057Y-196514342D01*
X204148628Y-196442914D01*
X204077200Y-196300057D01*
X204005771Y-196014342D01*
X204005771Y-195657200D01*
X204077200Y-195371485D01*
X204148628Y-195228628D01*
X204220057Y-195157200D01*
X204362914Y-195085771D01*
X206291485Y-196585771D02*
X205434342Y-196585771D01*
X205862914Y-196585771D02*
X205862914Y-195085771D01*
X205720057Y-195300057D01*
X205577200Y-195442914D01*
X205434342Y-195514342D01*
X206791485Y-195085771D02*
X207791485Y-195085771D01*
X207148628Y-196585771D01*
X208362914Y-196014342D02*
X209505771Y-196014342D01*
X210505771Y-195085771D02*
X210648628Y-195085771D01*
X210791485Y-195157200D01*
X210862914Y-195228628D01*
X210934342Y-195371485D01*
X211005771Y-195657200D01*
X211005771Y-196014342D01*
X210934342Y-196300057D01*
X210862914Y-196442914D01*
X210791485Y-196514342D01*
X210648628Y-196585771D01*
X210505771Y-196585771D01*
X210362914Y-196514342D01*
X210291485Y-196442914D01*
X210220057Y-196300057D01*
X210148628Y-196014342D01*
X210148628Y-195657200D01*
X210220057Y-195371485D01*
X210291485Y-195228628D01*
X210362914Y-195157200D01*
X210505771Y-195085771D01*
X211862914Y-195728628D02*
X211720057Y-195657200D01*
X211648628Y-195585771D01*
X211577200Y-195442914D01*
X211577200Y-195371485D01*
X211648628Y-195228628D01*
X211720057Y-195157200D01*
X211862914Y-195085771D01*
X212148628Y-195085771D01*
X212291485Y-195157200D01*
X212362914Y-195228628D01*
X212434342Y-195371485D01*
X212434342Y-195442914D01*
X212362914Y-195585771D01*
X212291485Y-195657200D01*
X212148628Y-195728628D01*
X211862914Y-195728628D01*
X211720057Y-195800057D01*
X211648628Y-195871485D01*
X211577200Y-196014342D01*
X211577200Y-196300057D01*
X211648628Y-196442914D01*
X211720057Y-196514342D01*
X211862914Y-196585771D01*
X212148628Y-196585771D01*
X212291485Y-196514342D01*
X212362914Y-196442914D01*
X212434342Y-196300057D01*
X212434342Y-196014342D01*
X212362914Y-195871485D01*
X212291485Y-195800057D01*
X212148628Y-195728628D01*
X213077200Y-196014342D02*
X214220057Y-196014342D01*
X215220057Y-195085771D02*
X215362914Y-195085771D01*
X215505771Y-195157200D01*
X215577200Y-195228628D01*
X215648628Y-195371485D01*
X215720057Y-195657200D01*
X215720057Y-196014342D01*
X215648628Y-196300057D01*
X215577200Y-196442914D01*
X215505771Y-196514342D01*
X215362914Y-196585771D01*
X215220057Y-196585771D01*
X215077200Y-196514342D01*
X215005771Y-196442914D01*
X214934342Y-196300057D01*
X214862914Y-196014342D01*
X214862914Y-195657200D01*
X214934342Y-195371485D01*
X215005771Y-195228628D01*
X215077200Y-195157200D01*
X215220057Y-195085771D01*
X216434342Y-196585771D02*
X216720057Y-196585771D01*
X216862914Y-196514342D01*
X216934342Y-196442914D01*
X217077200Y-196228628D01*
X217148628Y-195942914D01*
X217148628Y-195371485D01*
X217077200Y-195228628D01*
X217005771Y-195157200D01*
X216862914Y-195085771D01*
X216577200Y-195085771D01*
X216434342Y-195157200D01*
X216362914Y-195228628D01*
X216291485Y-195371485D01*
X216291485Y-195728628D01*
X216362914Y-195871485D01*
X216434342Y-195942914D01*
X216577200Y-196014342D01*
X216862914Y-196014342D01*
X217005771Y-195942914D01*
X217077200Y-195871485D01*
X217148628Y-195728628D01*
X218934342Y-196585771D02*
X218934342Y-195585771D01*
X218934342Y-195871485D02*
X219005771Y-195728628D01*
X219077200Y-195657200D01*
X219220057Y-195585771D01*
X219362914Y-195585771D01*
X220434342Y-196514342D02*
X220291485Y-196585771D01*
X220005771Y-196585771D01*
X219862914Y-196514342D01*
X219791485Y-196371485D01*
X219791485Y-195800057D01*
X219862914Y-195657200D01*
X220005771Y-195585771D01*
X220291485Y-195585771D01*
X220434342Y-195657200D01*
X220505771Y-195800057D01*
X220505771Y-195942914D01*
X219791485Y-196085771D01*
X221005771Y-195585771D02*
X221362914Y-196585771D01*
X221720057Y-195585771D01*
X222291485Y-196585771D02*
X222291485Y-195585771D01*
X222291485Y-195085771D02*
X222220057Y-195157200D01*
X222291485Y-195228628D01*
X222362914Y-195157200D01*
X222291485Y-195085771D01*
X222291485Y-195228628D01*
X222934342Y-196514342D02*
X223077200Y-196585771D01*
X223362914Y-196585771D01*
X223505771Y-196514342D01*
X223577200Y-196371485D01*
X223577200Y-196300057D01*
X223505771Y-196157200D01*
X223362914Y-196085771D01*
X223148628Y-196085771D01*
X223005771Y-196014342D01*
X222934342Y-195871485D01*
X222934342Y-195800057D01*
X223005771Y-195657200D01*
X223148628Y-195585771D01*
X223362914Y-195585771D01*
X223505771Y-195657200D01*
X224220057Y-196585771D02*
X224220057Y-195585771D01*
X224220057Y-195085771D02*
X224148628Y-195157200D01*
X224220057Y-195228628D01*
X224291485Y-195157200D01*
X224220057Y-195085771D01*
X224220057Y-195228628D01*
X225148628Y-196585771D02*
X225005771Y-196514342D01*
X224934342Y-196442914D01*
X224862914Y-196300057D01*
X224862914Y-195871485D01*
X224934342Y-195728628D01*
X225005771Y-195657200D01*
X225148628Y-195585771D01*
X225362914Y-195585771D01*
X225505771Y-195657200D01*
X225577200Y-195728628D01*
X225648628Y-195871485D01*
X225648628Y-196300057D01*
X225577200Y-196442914D01*
X225505771Y-196514342D01*
X225362914Y-196585771D01*
X225148628Y-196585771D01*
X226291485Y-195585771D02*
X226291485Y-196585771D01*
X226291485Y-195728628D02*
X226362914Y-195657200D01*
X226505771Y-195585771D01*
X226720057Y-195585771D01*
X226862914Y-195657200D01*
X226934342Y-195800057D01*
X226934342Y-196585771D01*
X229005771Y-195728628D02*
X228862914Y-195657200D01*
X228791485Y-195585771D01*
X228720057Y-195442914D01*
X228720057Y-195371485D01*
X228791485Y-195228628D01*
X228862914Y-195157200D01*
X229005771Y-195085771D01*
X229291485Y-195085771D01*
X229434342Y-195157200D01*
X229505771Y-195228628D01*
X229577200Y-195371485D01*
X229577200Y-195442914D01*
X229505771Y-195585771D01*
X229434342Y-195657200D01*
X229291485Y-195728628D01*
X229005771Y-195728628D01*
X228862914Y-195800057D01*
X228791485Y-195871485D01*
X228720057Y-196014342D01*
X228720057Y-196300057D01*
X228791485Y-196442914D01*
X228862914Y-196514342D01*
X229005771Y-196585771D01*
X229291485Y-196585771D01*
X229434342Y-196514342D01*
X229505771Y-196442914D01*
X229577200Y-196300057D01*
X229577200Y-196014342D01*
X229505771Y-195871485D01*
X229434342Y-195800057D01*
X229291485Y-195728628D01*
X230862914Y-196585771D02*
X230862914Y-195800057D01*
X230791485Y-195657200D01*
X230648628Y-195585771D01*
X230362914Y-195585771D01*
X230220057Y-195657200D01*
X230862914Y-196514342D02*
X230720057Y-196585771D01*
X230362914Y-196585771D01*
X230220057Y-196514342D01*
X230148628Y-196371485D01*
X230148628Y-196228628D01*
X230220057Y-196085771D01*
X230362914Y-196014342D01*
X230720057Y-196014342D01*
X230862914Y-195942914D01*
X232362914Y-196585771D02*
X231505771Y-196585771D01*
X231934342Y-196585771D02*
X231934342Y-195085771D01*
X231791485Y-195300057D01*
X231648628Y-195442914D01*
X231505771Y-195514342D01*
X233648628Y-196585771D02*
X233648628Y-195800057D01*
X233577200Y-195657200D01*
X233434342Y-195585771D01*
X233148628Y-195585771D01*
X233005771Y-195657200D01*
X233648628Y-196514342D02*
X233505771Y-196585771D01*
X233148628Y-196585771D01*
X233005771Y-196514342D01*
X232934342Y-196371485D01*
X232934342Y-196228628D01*
X233005771Y-196085771D01*
X233148628Y-196014342D01*
X233505771Y-196014342D01*
X233648628Y-195942914D01*
X234220057Y-195085771D02*
X235148628Y-195085771D01*
X234648628Y-195657200D01*
X234862914Y-195657200D01*
X235005771Y-195728628D01*
X235077200Y-195800057D01*
X235148628Y-195942914D01*
X235148628Y-196300057D01*
X235077200Y-196442914D01*
X235005771Y-196514342D01*
X234862914Y-196585771D01*
X234434342Y-196585771D01*
X234291485Y-196514342D01*
X234220057Y-196442914D01*
X236362914Y-196514342D02*
X236220057Y-196585771D01*
X235934342Y-196585771D01*
X235791485Y-196514342D01*
X235720057Y-196371485D01*
X235720057Y-195800057D01*
X235791485Y-195657200D01*
X235934342Y-195585771D01*
X236220057Y-195585771D01*
X236362914Y-195657200D01*
X236434342Y-195800057D01*
X236434342Y-195942914D01*
X235720057Y-196085771D01*
X237720057Y-196585771D02*
X237720057Y-195085771D01*
X237720057Y-196514342D02*
X237577200Y-196585771D01*
X237291485Y-196585771D01*
X237148628Y-196514342D01*
X237077200Y-196442914D01*
X237005771Y-196300057D01*
X237005771Y-195871485D01*
X237077200Y-195728628D01*
X237148628Y-195657200D01*
X237291485Y-195585771D01*
X237577200Y-195585771D01*
X237720057Y-195657200D01*
X238291485Y-195085771D02*
X239220057Y-195085771D01*
X238720057Y-195657200D01*
X238934342Y-195657200D01*
X239077200Y-195728628D01*
X239148628Y-195800057D01*
X239220057Y-195942914D01*
X239220057Y-196300057D01*
X239148628Y-196442914D01*
X239077200Y-196514342D01*
X238934342Y-196585771D01*
X238505771Y-196585771D01*
X238362914Y-196514342D01*
X238291485Y-196442914D01*
X240505771Y-195085771D02*
X240220057Y-195085771D01*
X240077200Y-195157200D01*
X240005771Y-195228628D01*
X239862914Y-195442914D01*
X239791485Y-195728628D01*
X239791485Y-196300057D01*
X239862914Y-196442914D01*
X239934342Y-196514342D01*
X240077200Y-196585771D01*
X240362914Y-196585771D01*
X240505771Y-196514342D01*
X240577200Y-196442914D01*
X240648628Y-196300057D01*
X240648628Y-195942914D01*
X240577200Y-195800057D01*
X240505771Y-195728628D01*
X240362914Y-195657200D01*
X240077200Y-195657200D01*
X239934342Y-195728628D01*
X239862914Y-195800057D01*
X239791485Y-195942914D01*
X241148628Y-197157200D02*
X241220057Y-197085771D01*
X241362914Y-196871485D01*
X241434342Y-196728628D01*
X241505771Y-196514342D01*
X241577199Y-196157200D01*
X241577199Y-195871485D01*
X241505771Y-195514342D01*
X241434342Y-195300057D01*
X241362914Y-195157200D01*
X241220057Y-194942914D01*
X241148628Y-194871485D01*
X242291485Y-196014342D02*
X243434342Y-196014342D01*
X244148628Y-196585771D02*
X244148628Y-195585771D01*
X244148628Y-195728628D02*
X244220057Y-195657200D01*
X244362914Y-195585771D01*
X244577199Y-195585771D01*
X244720057Y-195657200D01*
X244791485Y-195800057D01*
X244791485Y-196585771D01*
X244791485Y-195800057D02*
X244862914Y-195657200D01*
X245005771Y-195585771D01*
X245220057Y-195585771D01*
X245362914Y-195657200D01*
X245434342Y-195800057D01*
X245434342Y-196585771D01*
X246791485Y-196585771D02*
X246791485Y-195800057D01*
X246720057Y-195657200D01*
X246577200Y-195585771D01*
X246291485Y-195585771D01*
X246148628Y-195657200D01*
X246791485Y-196514342D02*
X246648628Y-196585771D01*
X246291485Y-196585771D01*
X246148628Y-196514342D01*
X246077200Y-196371485D01*
X246077200Y-196228628D01*
X246148628Y-196085771D01*
X246291485Y-196014342D01*
X246648628Y-196014342D01*
X246791485Y-195942914D01*
X247505771Y-196585771D02*
X247505771Y-195085771D01*
X247648628Y-196014342D02*
X248077200Y-196585771D01*
X248077200Y-195585771D02*
X247505771Y-196157200D01*
X249291485Y-196514342D02*
X249148628Y-196585771D01*
X248862914Y-196585771D01*
X248720057Y-196514342D01*
X248648628Y-196371485D01*
X248648628Y-195800057D01*
X248720057Y-195657200D01*
X248862914Y-195585771D01*
X249148628Y-195585771D01*
X249291485Y-195657200D01*
X249362914Y-195800057D01*
X249362914Y-195942914D01*
X248648628Y-196085771D01*
X250005771Y-195585771D02*
X250005771Y-197085771D01*
X250005771Y-195657200D02*
X250148628Y-195585771D01*
X250434342Y-195585771D01*
X250577200Y-195657200D01*
X250648628Y-195728628D01*
X250720057Y-195871485D01*
X250720057Y-196300057D01*
X250648628Y-196442914D01*
X250577200Y-196514342D01*
X250434342Y-196585771D01*
X250148628Y-196585771D01*
X250005771Y-196514342D01*
X251362914Y-196585771D02*
X251362914Y-195085771D01*
X251505771Y-196014342D02*
X251934342Y-196585771D01*
X251934342Y-195585771D02*
X251362914Y-196157200D01*
X253220057Y-195585771D02*
X253220057Y-196800057D01*
X253148628Y-196942914D01*
X253077199Y-197014342D01*
X252934342Y-197085771D01*
X252720057Y-197085771D01*
X252577199Y-197014342D01*
X253220057Y-196514342D02*
X253077199Y-196585771D01*
X252791485Y-196585771D01*
X252648628Y-196514342D01*
X252577199Y-196442914D01*
X252505771Y-196300057D01*
X252505771Y-195871485D01*
X252577199Y-195728628D01*
X252648628Y-195657200D01*
X252791485Y-195585771D01*
X253077199Y-195585771D01*
X253220057Y-195657200D01*
D10*
D11*
X177002200Y-191507200D02*
X285002200Y-191507200D01*
D10*
D12*
X264411485Y-193785771D02*
X263911485Y-193071485D01*
X263554342Y-193785771D02*
X263554342Y-192285771D01*
X264125771Y-192285771D01*
X264268628Y-192357200D01*
X264340057Y-192428628D01*
X264411485Y-192571485D01*
X264411485Y-192785771D01*
X264340057Y-192928628D01*
X264268628Y-193000057D01*
X264125771Y-193071485D01*
X263554342Y-193071485D01*
X265625771Y-193714342D02*
X265482914Y-193785771D01*
X265197200Y-193785771D01*
X265054342Y-193714342D01*
X264982914Y-193571485D01*
X264982914Y-193000057D01*
X265054342Y-192857200D01*
X265197200Y-192785771D01*
X265482914Y-192785771D01*
X265625771Y-192857200D01*
X265697200Y-193000057D01*
X265697200Y-193142914D01*
X264982914Y-193285771D01*
X266197200Y-192785771D02*
X266554342Y-193785771D01*
X266911485Y-192785771D01*
X267482914Y-193642914D02*
X267554342Y-193714342D01*
X267482914Y-193785771D01*
X267411485Y-193714342D01*
X267482914Y-193642914D01*
X267482914Y-193785771D01*
X267482914Y-192857200D02*
X267554342Y-192928628D01*
X267482914Y-193000057D01*
X267411485Y-192928628D01*
X267482914Y-192857200D01*
X267482914Y-193000057D01*
D10*
D11*
X178362914Y-193714342D02*
X178577200Y-193785771D01*
X178934342Y-193785771D01*
X179077200Y-193714342D01*
X179148628Y-193642914D01*
X179220057Y-193500057D01*
X179220057Y-193357200D01*
X179148628Y-193214342D01*
X179077200Y-193142914D01*
X178934342Y-193071485D01*
X178648628Y-193000057D01*
X178505771Y-192928628D01*
X178434342Y-192857200D01*
X178362914Y-192714342D01*
X178362914Y-192571485D01*
X178434342Y-192428628D01*
X178505771Y-192357200D01*
X178648628Y-192285771D01*
X179005771Y-192285771D01*
X179220057Y-192357200D01*
X179862914Y-193785771D02*
X179862914Y-192785771D01*
X179862914Y-192285771D02*
X179791485Y-192357200D01*
X179862914Y-192428628D01*
X179934342Y-192357200D01*
X179862914Y-192285771D01*
X179862914Y-192428628D01*
X180434342Y-192785771D02*
X181220057Y-192785771D01*
X180434342Y-193785771D01*
X181220057Y-193785771D01*
X182362914Y-193714342D02*
X182220057Y-193785771D01*
X181934342Y-193785771D01*
X181791485Y-193714342D01*
X181720057Y-193571485D01*
X181720057Y-193000057D01*
X181791485Y-192857200D01*
X181934342Y-192785771D01*
X182220057Y-192785771D01*
X182362914Y-192857200D01*
X182434342Y-193000057D01*
X182434342Y-193142914D01*
X181720057Y-193285771D01*
X183077200Y-193642914D02*
X183148628Y-193714342D01*
X183077200Y-193785771D01*
X183005771Y-193714342D01*
X183077200Y-193642914D01*
X183077200Y-193785771D01*
X183077200Y-192857200D02*
X183148628Y-192928628D01*
X183077200Y-193000057D01*
X183005771Y-192928628D01*
X183077200Y-192857200D01*
X183077200Y-193000057D01*
X184862914Y-193357200D02*
X185577200Y-193357200D01*
X184720057Y-193785771D02*
X185220057Y-192285771D01*
X185720057Y-193785771D01*
X186862914Y-192785771D02*
X186862914Y-193785771D01*
X186505771Y-192214342D02*
X186148628Y-193285771D01*
X187077200Y-193285771D01*
D10*
D11*
X263434342Y-196585771D02*
X263434342Y-195085771D01*
X264791485Y-196585771D02*
X264791485Y-195085771D01*
X264791485Y-196514342D02*
X264648628Y-196585771D01*
X264362914Y-196585771D01*
X264220057Y-196514342D01*
X264148628Y-196442914D01*
X264077200Y-196300057D01*
X264077200Y-195871485D01*
X264148628Y-195728628D01*
X264220057Y-195657200D01*
X264362914Y-195585771D01*
X264648628Y-195585771D01*
X264791485Y-195657200D01*
X265505771Y-196442914D02*
X265577200Y-196514342D01*
X265505771Y-196585771D01*
X265434342Y-196514342D01*
X265505771Y-196442914D01*
X265505771Y-196585771D01*
X265505771Y-195657200D02*
X265577200Y-195728628D01*
X265505771Y-195800057D01*
X265434342Y-195728628D01*
X265505771Y-195657200D01*
X265505771Y-195800057D01*
X268148628Y-196585771D02*
X267291485Y-196585771D01*
X267720057Y-196585771D02*
X267720057Y-195085771D01*
X267577200Y-195300057D01*
X267434342Y-195442914D01*
X267291485Y-195514342D01*
X269862914Y-195014342D02*
X268577200Y-196942914D01*
X271148628Y-196585771D02*
X270291485Y-196585771D01*
X270720057Y-196585771D02*
X270720057Y-195085771D01*
X270577200Y-195300057D01*
X270434342Y-195442914D01*
X270291485Y-195514342D01*
D10*
D11*
X177002200Y-187507200D02*
X285002200Y-187507200D01*
D10*
D13*
X178714580Y-188211961D02*
X179857438Y-188211961D01*
X179036009Y-190211961D02*
X179286009Y-188211961D01*
X180274104Y-190211961D02*
X180440771Y-188878628D01*
X180524104Y-188211961D02*
X180416961Y-188307200D01*
X180500295Y-188402438D01*
X180607438Y-188307200D01*
X180524104Y-188211961D01*
X180500295Y-188402438D01*
X181107438Y-188878628D02*
X181869342Y-188878628D01*
X181476485Y-188211961D02*
X181262200Y-189926247D01*
X181333628Y-190116723D01*
X181512200Y-190211961D01*
X181702676Y-190211961D01*
X182655057Y-190211961D02*
X182476485Y-190116723D01*
X182405057Y-189926247D01*
X182619342Y-188211961D01*
X184190771Y-190116723D02*
X183988390Y-190211961D01*
X183607438Y-190211961D01*
X183428866Y-190116723D01*
X183357438Y-189926247D01*
X183452676Y-189164342D01*
X183571723Y-188973866D01*
X183774104Y-188878628D01*
X184155057Y-188878628D01*
X184333628Y-188973866D01*
X184405057Y-189164342D01*
X184381247Y-189354819D01*
X183405057Y-189545295D01*
X185155057Y-190021485D02*
X185238390Y-190116723D01*
X185131247Y-190211961D01*
X185047914Y-190116723D01*
X185155057Y-190021485D01*
X185131247Y-190211961D01*
X185286009Y-188973866D02*
X185369342Y-189069104D01*
X185262200Y-189164342D01*
X185178866Y-189069104D01*
X185286009Y-188973866D01*
X185262200Y-189164342D01*
D10*
D11*
X178934342Y-185600057D02*
X178434342Y-185600057D01*
X178434342Y-186385771D02*
X178434342Y-184885771D01*
X179148628Y-184885771D01*
X179720057Y-186385771D02*
X179720057Y-185385771D01*
X179720057Y-184885771D02*
X179648628Y-184957200D01*
X179720057Y-185028628D01*
X179791485Y-184957200D01*
X179720057Y-184885771D01*
X179720057Y-185028628D01*
X180648628Y-186385771D02*
X180505771Y-186314342D01*
X180434342Y-186171485D01*
X180434342Y-184885771D01*
X181791485Y-186314342D02*
X181648628Y-186385771D01*
X181362914Y-186385771D01*
X181220057Y-186314342D01*
X181148628Y-186171485D01*
X181148628Y-185600057D01*
X181220057Y-185457200D01*
X181362914Y-185385771D01*
X181648628Y-185385771D01*
X181791485Y-185457200D01*
X181862914Y-185600057D01*
X181862914Y-185742914D01*
X181148628Y-185885771D01*
X182505771Y-186242914D02*
X182577200Y-186314342D01*
X182505771Y-186385771D01*
X182434342Y-186314342D01*
X182505771Y-186242914D01*
X182505771Y-186385771D01*
X182505771Y-185457200D02*
X182577200Y-185528628D01*
X182505771Y-185600057D01*
X182434342Y-185528628D01*
X182505771Y-185457200D01*
X182505771Y-185600057D01*
X184362914Y-186385771D02*
X184362914Y-184885771D01*
X184362914Y-185600057D02*
X185220057Y-185600057D01*
X185220057Y-186385771D02*
X185220057Y-184885771D01*
X185720057Y-184885771D02*
X186220057Y-186385771D01*
X186720057Y-184885771D01*
X187148628Y-186314342D02*
X187362914Y-186385771D01*
X187720057Y-186385771D01*
X187862914Y-186314342D01*
X187934342Y-186242914D01*
X188005771Y-186100057D01*
X188005771Y-185957200D01*
X187934342Y-185814342D01*
X187862914Y-185742914D01*
X187720057Y-185671485D01*
X187434342Y-185600057D01*
X187291485Y-185528628D01*
X187220057Y-185457200D01*
X187148628Y-185314342D01*
X187148628Y-185171485D01*
X187220057Y-185028628D01*
X187291485Y-184957200D01*
X187434342Y-184885771D01*
X187791485Y-184885771D01*
X188005771Y-184957200D01*
X189505771Y-186242914D02*
X189434342Y-186314342D01*
X189220057Y-186385771D01*
X189077200Y-186385771D01*
X188862914Y-186314342D01*
X188720057Y-186171485D01*
X188648628Y-186028628D01*
X188577200Y-185742914D01*
X188577200Y-185528628D01*
X188648628Y-185242914D01*
X188720057Y-185100057D01*
X188862914Y-184957200D01*
X189077200Y-184885771D01*
X189220057Y-184885771D01*
X189434342Y-184957200D01*
X189505771Y-185028628D01*
X190862914Y-184885771D02*
X190148628Y-184885771D01*
X190077200Y-185600057D01*
X190148628Y-185528628D01*
X190291485Y-185457200D01*
X190648628Y-185457200D01*
X190791485Y-185528628D01*
X190862914Y-185600057D01*
X190934342Y-185742914D01*
X190934342Y-186100057D01*
X190862914Y-186242914D01*
X190791485Y-186314342D01*
X190648628Y-186385771D01*
X190291485Y-186385771D01*
X190148628Y-186314342D01*
X190077200Y-186242914D01*
X191577200Y-186242914D02*
X191648628Y-186314342D01*
X191577200Y-186385771D01*
X191505771Y-186314342D01*
X191577200Y-186242914D01*
X191577200Y-186385771D01*
X192291485Y-186385771D02*
X192291485Y-184885771D01*
X192434342Y-185814342D02*
X192862914Y-186385771D01*
X192862914Y-185385771D02*
X192291485Y-185957200D01*
X193505771Y-186385771D02*
X193505771Y-185385771D01*
X193505771Y-184885771D02*
X193434342Y-184957200D01*
X193505771Y-185028628D01*
X193577200Y-184957200D01*
X193505771Y-184885771D01*
X193505771Y-185028628D01*
X194862914Y-186314342D02*
X194720057Y-186385771D01*
X194434342Y-186385771D01*
X194291485Y-186314342D01*
X194220057Y-186242914D01*
X194148628Y-186100057D01*
X194148628Y-185671485D01*
X194220057Y-185528628D01*
X194291485Y-185457200D01*
X194434342Y-185385771D01*
X194720057Y-185385771D01*
X194862914Y-185457200D01*
X196148628Y-186385771D02*
X196148628Y-185600057D01*
X196077200Y-185457200D01*
X195934342Y-185385771D01*
X195648628Y-185385771D01*
X195505771Y-185457200D01*
X196148628Y-186314342D02*
X196005771Y-186385771D01*
X195648628Y-186385771D01*
X195505771Y-186314342D01*
X195434342Y-186171485D01*
X195434342Y-186028628D01*
X195505771Y-185885771D01*
X195648628Y-185814342D01*
X196005771Y-185814342D01*
X196148628Y-185742914D01*
X197505771Y-186385771D02*
X197505771Y-184885771D01*
X197505771Y-186314342D02*
X197362914Y-186385771D01*
X197077200Y-186385771D01*
X196934342Y-186314342D01*
X196862914Y-186242914D01*
X196791485Y-186100057D01*
X196791485Y-185671485D01*
X196862914Y-185528628D01*
X196934342Y-185457200D01*
X197077200Y-185385771D01*
X197362914Y-185385771D01*
X197505771Y-185457200D01*
X197862914Y-186528628D02*
X199005771Y-186528628D01*
X199362914Y-185385771D02*
X199362914Y-186885771D01*
X199362914Y-185457200D02*
X199505771Y-185385771D01*
X199791485Y-185385771D01*
X199934342Y-185457200D01*
X200005771Y-185528628D01*
X200077200Y-185671485D01*
X200077200Y-186100057D01*
X200005771Y-186242914D01*
X199934342Y-186314342D01*
X199791485Y-186385771D01*
X199505771Y-186385771D01*
X199362914Y-186314342D01*
X201362914Y-186314342D02*
X201220057Y-186385771D01*
X200934342Y-186385771D01*
X200791485Y-186314342D01*
X200720057Y-186242914D01*
X200648628Y-186100057D01*
X200648628Y-185671485D01*
X200720057Y-185528628D01*
X200791485Y-185457200D01*
X200934342Y-185385771D01*
X201220057Y-185385771D01*
X201362914Y-185457200D01*
X202005771Y-186385771D02*
X202005771Y-184885771D01*
X202005771Y-185457200D02*
X202148628Y-185385771D01*
X202434342Y-185385771D01*
X202577200Y-185457200D01*
X202648628Y-185528628D01*
X202720057Y-185671485D01*
X202720057Y-186100057D01*
X202648628Y-186242914D01*
X202577200Y-186314342D01*
X202434342Y-186385771D01*
X202148628Y-186385771D01*
X202005771Y-186314342D01*
D10*
D11*
X177002200Y-181507200D02*
X285002200Y-181507200D01*
D10*
D11*
X178362914Y-183614342D02*
X178577200Y-183685771D01*
X178934342Y-183685771D01*
X179077200Y-183614342D01*
X179148628Y-183542914D01*
X179220057Y-183400057D01*
X179220057Y-183257200D01*
X179148628Y-183114342D01*
X179077200Y-183042914D01*
X178934342Y-182971485D01*
X178648628Y-182900057D01*
X178505771Y-182828628D01*
X178434342Y-182757200D01*
X178362914Y-182614342D01*
X178362914Y-182471485D01*
X178434342Y-182328628D01*
X178505771Y-182257200D01*
X178648628Y-182185771D01*
X179005771Y-182185771D01*
X179220057Y-182257200D01*
X179862914Y-183685771D02*
X179862914Y-182185771D01*
X180505771Y-183685771D02*
X180505771Y-182900057D01*
X180434342Y-182757200D01*
X180291485Y-182685771D01*
X180077200Y-182685771D01*
X179934342Y-182757200D01*
X179862914Y-182828628D01*
X181791485Y-183614342D02*
X181648628Y-183685771D01*
X181362914Y-183685771D01*
X181220057Y-183614342D01*
X181148628Y-183471485D01*
X181148628Y-182900057D01*
X181220057Y-182757200D01*
X181362914Y-182685771D01*
X181648628Y-182685771D01*
X181791485Y-182757200D01*
X181862914Y-182900057D01*
X181862914Y-183042914D01*
X181148628Y-183185771D01*
X183077200Y-183614342D02*
X182934342Y-183685771D01*
X182648628Y-183685771D01*
X182505771Y-183614342D01*
X182434342Y-183471485D01*
X182434342Y-182900057D01*
X182505771Y-182757200D01*
X182648628Y-182685771D01*
X182934342Y-182685771D01*
X183077200Y-182757200D01*
X183148628Y-182900057D01*
X183148628Y-183042914D01*
X182434342Y-183185771D01*
X183577200Y-182685771D02*
X184148628Y-182685771D01*
X183791485Y-182185771D02*
X183791485Y-183471485D01*
X183862914Y-183614342D01*
X184005771Y-183685771D01*
X184148628Y-183685771D01*
X184648628Y-183542914D02*
X184720057Y-183614342D01*
X184648628Y-183685771D01*
X184577200Y-183614342D01*
X184648628Y-183542914D01*
X184648628Y-183685771D01*
X184648628Y-182757200D02*
X184720057Y-182828628D01*
X184648628Y-182900057D01*
X184577200Y-182828628D01*
X184648628Y-182757200D01*
X184648628Y-182900057D01*
D10*
D11*
X197002200Y-191507200D02*
X197002200Y-194507200D01*
D10*
D11*
X261002200Y-191507200D02*
X261002200Y-198007200D01*
D14*
X175054000Y-91652000D02*
X175054000Y-105452000D01*
X175054000Y-105452000D02*
X168354000Y-105452000D01*
X168354000Y-105452000D02*
X168354000Y-91652000D01*
X168354000Y-91652000D02*
X175054000Y-91652000D01*
X25650000Y-73194000D02*
X25650000Y-59394000D01*
X25650000Y-59394000D02*
X32350000Y-59394000D01*
X32350000Y-59394000D02*
X32350000Y-73194000D01*
X32350000Y-73194000D02*
X25650000Y-73194000D01*
X175212000Y-91652000D02*
X181912000Y-91652000D01*
X175212000Y-105452000D02*
X175212000Y-91652000D01*
X181912000Y-105452000D02*
X175212000Y-105452000D01*
X181912000Y-91652000D02*
X181912000Y-105452000D01*
X188150000Y-88762000D02*
X192850000Y-88762000D01*
X188150000Y-88762000D02*
X188150000Y-90562000D01*
X192850000Y-90562000D02*
X192850000Y-88762000D01*
X192850000Y-90562000D02*
X188150000Y-90562000D01*
X192850000Y-93102000D02*
X188150000Y-93102000D01*
X192850000Y-93102000D02*
X192850000Y-91302000D01*
X188150000Y-91302000D02*
X188150000Y-93102000D01*
X188150000Y-91302000D02*
X192850000Y-91302000D01*
X34296000Y-51080000D02*
X34296000Y-76380000D01*
X41396000Y-51080000D02*
X34296000Y-51080000D01*
X41396000Y-76380000D02*
X41396000Y-51080000D01*
X34296000Y-76380000D02*
X41396000Y-76380000D01*
X202690000Y-27980000D02*
X202690000Y-37530000D01*
X202690000Y-37530000D02*
X195440000Y-37530000D01*
X195440000Y-37530000D02*
X195440000Y-27980000D01*
X195440000Y-27980000D02*
X202690000Y-27980000D01*
X58750000Y-98890000D02*
X65250000Y-98890000D01*
X58750000Y-98890000D02*
X58750000Y-101100000D01*
X65250000Y-101100000D02*
X65250000Y-98890000D01*
X65250000Y-101100000D02*
X58750000Y-101100000D01*
X91750000Y-130890000D02*
X98250000Y-130890000D01*
X91750000Y-130890000D02*
X91750000Y-133100000D01*
X98250000Y-133100000D02*
X98250000Y-130890000D01*
X98250000Y-133100000D02*
X91750000Y-133100000D01*
X128506000Y-38724000D02*
X133206000Y-38724000D01*
X128506000Y-38724000D02*
X128506000Y-40524000D01*
X133206000Y-40524000D02*
X133206000Y-38724000D01*
X133206000Y-40524000D02*
X128506000Y-40524000D01*
X133206000Y-45604000D02*
X128506000Y-45604000D01*
X133206000Y-45604000D02*
X133206000Y-43804000D01*
X128506000Y-43804000D02*
X128506000Y-45604000D01*
X128506000Y-43804000D02*
X133206000Y-43804000D01*
X128506000Y-41264000D02*
X133206000Y-41264000D01*
X128506000Y-41264000D02*
X128506000Y-43064000D01*
X133206000Y-43064000D02*
X133206000Y-41264000D01*
X133206000Y-43064000D02*
X128506000Y-43064000D01*
X44750000Y-78900000D02*
X51250000Y-78900000D01*
X44750000Y-78900000D02*
X44750000Y-81110000D01*
X51250000Y-81110000D02*
X51250000Y-78900000D01*
X51250000Y-81110000D02*
X44750000Y-81110000D01*
X91250000Y-81100000D02*
X84750000Y-81100000D01*
X91250000Y-81100000D02*
X91250000Y-78890000D01*
X84750000Y-78890000D02*
X84750000Y-81100000D01*
X84750000Y-78890000D02*
X91250000Y-78890000D01*
X72250000Y-93110000D02*
X65750000Y-93110000D01*
X72250000Y-93110000D02*
X72250000Y-90900000D01*
X65750000Y-90900000D02*
X65750000Y-93110000D01*
X65750000Y-90900000D02*
X72250000Y-90900000D01*
X105250000Y-84100000D02*
X98750000Y-84100000D01*
X105250000Y-84100000D02*
X105250000Y-81890000D01*
X98750000Y-81890000D02*
X98750000Y-84100000D01*
X98750000Y-81890000D02*
X105250000Y-81890000D01*
X77750000Y-75890000D02*
X84250000Y-75890000D01*
X77750000Y-75890000D02*
X77750000Y-78100000D01*
X84250000Y-78100000D02*
X84250000Y-75890000D01*
X84250000Y-78100000D02*
X77750000Y-78100000D01*
X65750000Y-75900000D02*
X72250000Y-75900000D01*
X65750000Y-75900000D02*
X65750000Y-78110000D01*
X72250000Y-78110000D02*
X72250000Y-75900000D01*
X72250000Y-78110000D02*
X65750000Y-78110000D01*
X84250000Y-81110000D02*
X77750000Y-81110000D01*
X84250000Y-81110000D02*
X84250000Y-78900000D01*
X77750000Y-78900000D02*
X77750000Y-81110000D01*
X77750000Y-78900000D02*
X84250000Y-78900000D01*
X72250000Y-81100000D02*
X65750000Y-81100000D01*
X72250000Y-81100000D02*
X72250000Y-78890000D01*
X65750000Y-78890000D02*
X65750000Y-81100000D01*
X65750000Y-78890000D02*
X72250000Y-78890000D01*
X51750000Y-78890000D02*
X58250000Y-78890000D01*
X51750000Y-78890000D02*
X51750000Y-81100000D01*
X58250000Y-81100000D02*
X58250000Y-78890000D01*
X58250000Y-81100000D02*
X51750000Y-81100000D01*
X105250000Y-81100000D02*
X98750000Y-81100000D01*
X105250000Y-81100000D02*
X105250000Y-78890000D01*
X98750000Y-78890000D02*
X98750000Y-81100000D01*
X98750000Y-78890000D02*
X105250000Y-78890000D01*
X51250000Y-84110000D02*
X44750000Y-84110000D01*
X51250000Y-84110000D02*
X51250000Y-81900000D01*
X44750000Y-81900000D02*
X44750000Y-84110000D01*
X44750000Y-81900000D02*
X51250000Y-81900000D01*
X84250000Y-93100000D02*
X77750000Y-93100000D01*
X84250000Y-93100000D02*
X84250000Y-90890000D01*
X77750000Y-90890000D02*
X77750000Y-93100000D01*
X77750000Y-90890000D02*
X84250000Y-90890000D01*
X65250000Y-81110000D02*
X58750000Y-81110000D01*
X65250000Y-81110000D02*
X65250000Y-78900000D01*
X58750000Y-78900000D02*
X58750000Y-81110000D01*
X58750000Y-78900000D02*
X65250000Y-78900000D01*
X91250000Y-93100000D02*
X84750000Y-93100000D01*
X91250000Y-93100000D02*
X91250000Y-90890000D01*
X84750000Y-90890000D02*
X84750000Y-93100000D01*
X84750000Y-90890000D02*
X91250000Y-90890000D01*
X91250000Y-127110000D02*
X84750000Y-127110000D01*
X91250000Y-127110000D02*
X91250000Y-124900000D01*
X84750000Y-124900000D02*
X84750000Y-127110000D01*
X84750000Y-124900000D02*
X91250000Y-124900000D01*
X58750000Y-90900000D02*
X65250000Y-90900000D01*
X58750000Y-90900000D02*
X58750000Y-93110000D01*
X65250000Y-93110000D02*
X65250000Y-90900000D01*
X65250000Y-93110000D02*
X58750000Y-93110000D01*
X44250000Y-137110000D02*
X37750000Y-137110000D01*
X44250000Y-137110000D02*
X44250000Y-134900000D01*
X37750000Y-134900000D02*
X37750000Y-137110000D01*
X37750000Y-134900000D02*
X44250000Y-134900000D01*
X105250000Y-123100000D02*
X98750000Y-123100000D01*
X105250000Y-123100000D02*
X105250000Y-120890000D01*
X98750000Y-120890000D02*
X98750000Y-123100000D01*
X98750000Y-120890000D02*
X105250000Y-120890000D01*
X51750000Y-112890000D02*
X58250000Y-112890000D01*
X51750000Y-112890000D02*
X51750000Y-115100000D01*
X58250000Y-115100000D02*
X58250000Y-112890000D01*
X58250000Y-115100000D02*
X51750000Y-115100000D01*
X37750000Y-120900000D02*
X44250000Y-120900000D01*
X37750000Y-120900000D02*
X37750000Y-123110000D01*
X44250000Y-123110000D02*
X44250000Y-120900000D01*
X44250000Y-123110000D02*
X37750000Y-123110000D01*
X84750000Y-120890000D02*
X91250000Y-120890000D01*
X84750000Y-120890000D02*
X84750000Y-123100000D01*
X91250000Y-123100000D02*
X91250000Y-120890000D01*
X91250000Y-123100000D02*
X84750000Y-123100000D01*
X72250000Y-89100000D02*
X65750000Y-89100000D01*
X72250000Y-89100000D02*
X72250000Y-86890000D01*
X65750000Y-86890000D02*
X65750000Y-89100000D01*
X65750000Y-86890000D02*
X72250000Y-86890000D01*
X91750000Y-120890000D02*
X98250000Y-120890000D01*
X91750000Y-120890000D02*
X91750000Y-123100000D01*
X98250000Y-123100000D02*
X98250000Y-120890000D01*
X98250000Y-123100000D02*
X91750000Y-123100000D01*
X91750000Y-124900000D02*
X98250000Y-124900000D01*
X91750000Y-124900000D02*
X91750000Y-127110000D01*
X98250000Y-127110000D02*
X98250000Y-124900000D01*
X98250000Y-127110000D02*
X91750000Y-127110000D01*
X44750000Y-134890000D02*
X51250000Y-134890000D01*
X44750000Y-134890000D02*
X44750000Y-137100000D01*
X51250000Y-137100000D02*
X51250000Y-134890000D01*
X51250000Y-137100000D02*
X44750000Y-137100000D01*
X51400000Y-120900000D02*
X57900000Y-120900000D01*
X51400000Y-120900000D02*
X51400000Y-123110000D01*
X57900000Y-123110000D02*
X57900000Y-120900000D01*
X57900000Y-123110000D02*
X51400000Y-123110000D01*
X65250000Y-123110000D02*
X58750000Y-123110000D01*
X65250000Y-123110000D02*
X65250000Y-120900000D01*
X58750000Y-120900000D02*
X58750000Y-123110000D01*
X58750000Y-120900000D02*
X65250000Y-120900000D01*
X77750000Y-120900000D02*
X84250000Y-120900000D01*
X77750000Y-120900000D02*
X77750000Y-123110000D01*
X84250000Y-123110000D02*
X84250000Y-120900000D01*
X84250000Y-123110000D02*
X77750000Y-123110000D01*
X77750000Y-124890000D02*
X84250000Y-124890000D01*
X77750000Y-124890000D02*
X77750000Y-127100000D01*
X84250000Y-127100000D02*
X84250000Y-124890000D01*
X84250000Y-127100000D02*
X77750000Y-127100000D01*
X65750000Y-124900000D02*
X72250000Y-124900000D01*
X65750000Y-124900000D02*
X65750000Y-127110000D01*
X72250000Y-127110000D02*
X72250000Y-124900000D01*
X72250000Y-127110000D02*
X65750000Y-127110000D01*
X65750000Y-120890000D02*
X72250000Y-120890000D01*
X65750000Y-120890000D02*
X65750000Y-123100000D01*
X72250000Y-123100000D02*
X72250000Y-120890000D01*
X72250000Y-123100000D02*
X65750000Y-123100000D01*
X72250000Y-86100000D02*
X65750000Y-86100000D01*
X72250000Y-86100000D02*
X72250000Y-83890000D01*
X65750000Y-83890000D02*
X65750000Y-86100000D01*
X65750000Y-83890000D02*
X72250000Y-83890000D01*
X84250000Y-86110000D02*
X77750000Y-86110000D01*
X84250000Y-86110000D02*
X84250000Y-83900000D01*
X77750000Y-83900000D02*
X77750000Y-86110000D01*
X77750000Y-83900000D02*
X84250000Y-83900000D01*
X112250000Y-146100000D02*
X105750000Y-146100000D01*
X112250000Y-146100000D02*
X112250000Y-143890000D01*
X105750000Y-143890000D02*
X105750000Y-146100000D01*
X105750000Y-143890000D02*
X112250000Y-143890000D01*
X44250000Y-146110000D02*
X37750000Y-146110000D01*
X44250000Y-146110000D02*
X44250000Y-143900000D01*
X37750000Y-143900000D02*
X37750000Y-146110000D01*
X37750000Y-143900000D02*
X44250000Y-143900000D01*
X44750000Y-120900000D02*
X51250000Y-120900000D01*
X44750000Y-120900000D02*
X44750000Y-123110000D01*
X51250000Y-123110000D02*
X51250000Y-120900000D01*
X51250000Y-123110000D02*
X44750000Y-123110000D01*
X84250000Y-119110000D02*
X77750000Y-119110000D01*
X84250000Y-119110000D02*
X84250000Y-116900000D01*
X77750000Y-116900000D02*
X77750000Y-119110000D01*
X77750000Y-116900000D02*
X84250000Y-116900000D01*
X84250000Y-115100000D02*
X77750000Y-115100000D01*
X84250000Y-115100000D02*
X84250000Y-112890000D01*
X77750000Y-112890000D02*
X77750000Y-115100000D01*
X77750000Y-112890000D02*
X84250000Y-112890000D01*
X72250000Y-115110000D02*
X65750000Y-115110000D01*
X72250000Y-115110000D02*
X72250000Y-112900000D01*
X65750000Y-112900000D02*
X65750000Y-115110000D01*
X65750000Y-112900000D02*
X72250000Y-112900000D01*
X91250000Y-119100000D02*
X84750000Y-119100000D01*
X91250000Y-119100000D02*
X91250000Y-116890000D01*
X84750000Y-116890000D02*
X84750000Y-119100000D01*
X84750000Y-116890000D02*
X91250000Y-116890000D01*
X84250000Y-89110000D02*
X77750000Y-89110000D01*
X84250000Y-89110000D02*
X84250000Y-86900000D01*
X77750000Y-86900000D02*
X77750000Y-89110000D01*
X77750000Y-86900000D02*
X84250000Y-86900000D01*
X112250000Y-123100000D02*
X105750000Y-123100000D01*
X112250000Y-123100000D02*
X112250000Y-120890000D01*
X105750000Y-120890000D02*
X105750000Y-123100000D01*
X105750000Y-120890000D02*
X112250000Y-120890000D01*
X58250000Y-119110000D02*
X51750000Y-119110000D01*
X58250000Y-119110000D02*
X58250000Y-116900000D01*
X51750000Y-116900000D02*
X51750000Y-119110000D01*
X51750000Y-116900000D02*
X58250000Y-116900000D01*
X58750000Y-116900000D02*
X65250000Y-116900000D01*
X58750000Y-116900000D02*
X58750000Y-119110000D01*
X65250000Y-119110000D02*
X65250000Y-116900000D01*
X65250000Y-119110000D02*
X58750000Y-119110000D01*
X112250000Y-119110000D02*
X105750000Y-119110000D01*
X112250000Y-119110000D02*
X112250000Y-116900000D01*
X105750000Y-116900000D02*
X105750000Y-119110000D01*
X105750000Y-116900000D02*
X112250000Y-116900000D01*
X98750000Y-116900000D02*
X105250000Y-116900000D01*
X98750000Y-116900000D02*
X98750000Y-119110000D01*
X105250000Y-119110000D02*
X105250000Y-116900000D01*
X105250000Y-119110000D02*
X98750000Y-119110000D01*
X44750000Y-116890000D02*
X51250000Y-116890000D01*
X44750000Y-116890000D02*
X44750000Y-119100000D01*
X51250000Y-119100000D02*
X51250000Y-116890000D01*
X51250000Y-119100000D02*
X44750000Y-119100000D01*
X44250000Y-119100000D02*
X37750000Y-119100000D01*
X44250000Y-119100000D02*
X44250000Y-116890000D01*
X37750000Y-116890000D02*
X37750000Y-119100000D01*
X37750000Y-116890000D02*
X44250000Y-116890000D01*
X91750000Y-90890000D02*
X98250000Y-90890000D01*
X91750000Y-90890000D02*
X91750000Y-93100000D01*
X98250000Y-93100000D02*
X98250000Y-90890000D01*
X98250000Y-93100000D02*
X91750000Y-93100000D01*
X98250000Y-119100000D02*
X91750000Y-119100000D01*
X98250000Y-119100000D02*
X98250000Y-116890000D01*
X91750000Y-116890000D02*
X91750000Y-119100000D01*
X91750000Y-116890000D02*
X98250000Y-116890000D01*
X105750000Y-138890000D02*
X112250000Y-138890000D01*
X105750000Y-138890000D02*
X105750000Y-141100000D01*
X112250000Y-141100000D02*
X112250000Y-138890000D01*
X112250000Y-141100000D02*
X105750000Y-141100000D01*
X37750000Y-138900000D02*
X44250000Y-138900000D01*
X37750000Y-138900000D02*
X37750000Y-141110000D01*
X44250000Y-141110000D02*
X44250000Y-138900000D01*
X44250000Y-141110000D02*
X37750000Y-141110000D01*
X98750000Y-134890000D02*
X105250000Y-134890000D01*
X98750000Y-134890000D02*
X98750000Y-137100000D01*
X105250000Y-137100000D02*
X105250000Y-134890000D01*
X105250000Y-137100000D02*
X98750000Y-137100000D01*
X112250000Y-137100000D02*
X105750000Y-137100000D01*
X112250000Y-137100000D02*
X112250000Y-134890000D01*
X105750000Y-134890000D02*
X105750000Y-137100000D01*
X105750000Y-134890000D02*
X112250000Y-134890000D01*
X58750000Y-134890000D02*
X65250000Y-134890000D01*
X58750000Y-134890000D02*
X58750000Y-137100000D01*
X65250000Y-137100000D02*
X65250000Y-134890000D01*
X65250000Y-137100000D02*
X58750000Y-137100000D01*
X58250000Y-137100000D02*
X51750000Y-137100000D01*
X58250000Y-137100000D02*
X58250000Y-134890000D01*
X51750000Y-134890000D02*
X51750000Y-137100000D01*
X51750000Y-134890000D02*
X58250000Y-134890000D01*
X105750000Y-147890000D02*
X112250000Y-147890000D01*
X105750000Y-147890000D02*
X105750000Y-150100000D01*
X112250000Y-150100000D02*
X112250000Y-147890000D01*
X112250000Y-150100000D02*
X105750000Y-150100000D01*
X37750000Y-147900000D02*
X44250000Y-147900000D01*
X37750000Y-147900000D02*
X37750000Y-150110000D01*
X44250000Y-150110000D02*
X44250000Y-147900000D01*
X44250000Y-150110000D02*
X37750000Y-150110000D01*
X72250000Y-137110000D02*
X65750000Y-137110000D01*
X72250000Y-137110000D02*
X72250000Y-134900000D01*
X65750000Y-134900000D02*
X65750000Y-137110000D01*
X65750000Y-134900000D02*
X72250000Y-134900000D01*
X65250000Y-127100000D02*
X58750000Y-127100000D01*
X65250000Y-127100000D02*
X65250000Y-124890000D01*
X58750000Y-124890000D02*
X58750000Y-127100000D01*
X58750000Y-124890000D02*
X65250000Y-124890000D01*
X84250000Y-133110000D02*
X77750000Y-133110000D01*
X84250000Y-133110000D02*
X84250000Y-130900000D01*
X77750000Y-130900000D02*
X77750000Y-133110000D01*
X77750000Y-130900000D02*
X84250000Y-130900000D01*
X84250000Y-137100000D02*
X77750000Y-137100000D01*
X84250000Y-137100000D02*
X84250000Y-134890000D01*
X77750000Y-134890000D02*
X77750000Y-137100000D01*
X77750000Y-134890000D02*
X84250000Y-134890000D01*
X58250000Y-133110000D02*
X51750000Y-133110000D01*
X58250000Y-133110000D02*
X58250000Y-130900000D01*
X51750000Y-130900000D02*
X51750000Y-133110000D01*
X51750000Y-130900000D02*
X58250000Y-130900000D01*
X91750000Y-78900000D02*
X98250000Y-78900000D01*
X91750000Y-78900000D02*
X91750000Y-81110000D01*
X98250000Y-81110000D02*
X98250000Y-78900000D01*
X98250000Y-81110000D02*
X91750000Y-81110000D01*
X65250000Y-133110000D02*
X58750000Y-133110000D01*
X65250000Y-133110000D02*
X65250000Y-130900000D01*
X58750000Y-130900000D02*
X58750000Y-133110000D01*
X58750000Y-130900000D02*
X65250000Y-130900000D01*
X91750000Y-134900000D02*
X98250000Y-134900000D01*
X91750000Y-134900000D02*
X91750000Y-137110000D01*
X98250000Y-137110000D02*
X98250000Y-134900000D01*
X98250000Y-137110000D02*
X91750000Y-137110000D01*
X91250000Y-137110000D02*
X84750000Y-137110000D01*
X91250000Y-137110000D02*
X91250000Y-134900000D01*
X84750000Y-134900000D02*
X84750000Y-137110000D01*
X84750000Y-134900000D02*
X91250000Y-134900000D01*
X112250000Y-127100000D02*
X105750000Y-127100000D01*
X112250000Y-127100000D02*
X112250000Y-124890000D01*
X105750000Y-124890000D02*
X105750000Y-127100000D01*
X105750000Y-124890000D02*
X112250000Y-124890000D01*
X44250000Y-101110000D02*
X37750000Y-101110000D01*
X44250000Y-101110000D02*
X44250000Y-98900000D01*
X37750000Y-98900000D02*
X37750000Y-101110000D01*
X37750000Y-98900000D02*
X44250000Y-98900000D01*
X44250000Y-105100000D02*
X37750000Y-105100000D01*
X44250000Y-105100000D02*
X44250000Y-102890000D01*
X37750000Y-102890000D02*
X37750000Y-105100000D01*
X37750000Y-102890000D02*
X44250000Y-102890000D01*
X65750000Y-116890000D02*
X72250000Y-116890000D01*
X65750000Y-116890000D02*
X65750000Y-119100000D01*
X72250000Y-119100000D02*
X72250000Y-116890000D01*
X72250000Y-119100000D02*
X65750000Y-119100000D01*
X98250000Y-105100000D02*
X91750000Y-105100000D01*
X98250000Y-105100000D02*
X98250000Y-102890000D01*
X91750000Y-102890000D02*
X91750000Y-105100000D01*
X91750000Y-102890000D02*
X98250000Y-102890000D01*
X58250000Y-105110000D02*
X51750000Y-105110000D01*
X58250000Y-105110000D02*
X58250000Y-102900000D01*
X51750000Y-102900000D02*
X51750000Y-105110000D01*
X51750000Y-102900000D02*
X58250000Y-102900000D01*
X72250000Y-133100000D02*
X65750000Y-133100000D01*
X72250000Y-133100000D02*
X72250000Y-130890000D01*
X65750000Y-130890000D02*
X65750000Y-133100000D01*
X65750000Y-130890000D02*
X72250000Y-130890000D01*
X51750000Y-124890000D02*
X58250000Y-124890000D01*
X51750000Y-124890000D02*
X51750000Y-127100000D01*
X58250000Y-127100000D02*
X58250000Y-124890000D01*
X58250000Y-127100000D02*
X51750000Y-127100000D01*
X105250000Y-127100000D02*
X98750000Y-127100000D01*
X105250000Y-127100000D02*
X105250000Y-124890000D01*
X98750000Y-124890000D02*
X98750000Y-127100000D01*
X98750000Y-124890000D02*
X105250000Y-124890000D01*
X44750000Y-94890000D02*
X51250000Y-94890000D01*
X44750000Y-94890000D02*
X44750000Y-97100000D01*
X51250000Y-97100000D02*
X51250000Y-94890000D01*
X51250000Y-97100000D02*
X44750000Y-97100000D01*
X37750000Y-124900000D02*
X44250000Y-124900000D01*
X37750000Y-124900000D02*
X37750000Y-127110000D01*
X44250000Y-127110000D02*
X44250000Y-124900000D01*
X44250000Y-127110000D02*
X37750000Y-127110000D01*
X51250000Y-127110000D02*
X44750000Y-127110000D01*
X51250000Y-127110000D02*
X51250000Y-124900000D01*
X44750000Y-124900000D02*
X44750000Y-127110000D01*
X44750000Y-124900000D02*
X51250000Y-124900000D01*
X105250000Y-133100000D02*
X98750000Y-133100000D01*
X105250000Y-133100000D02*
X105250000Y-130890000D01*
X98750000Y-130890000D02*
X98750000Y-133100000D01*
X98750000Y-130890000D02*
X105250000Y-130890000D01*
X105750000Y-130890000D02*
X112250000Y-130890000D01*
X105750000Y-130890000D02*
X105750000Y-133100000D01*
X112250000Y-133100000D02*
X112250000Y-130890000D01*
X112250000Y-133100000D02*
X105750000Y-133100000D01*
X37750000Y-130900000D02*
X44250000Y-130900000D01*
X37750000Y-130900000D02*
X37750000Y-133110000D01*
X44250000Y-133110000D02*
X44250000Y-130900000D01*
X44250000Y-133110000D02*
X37750000Y-133110000D01*
X37750000Y-106890000D02*
X44250000Y-106890000D01*
X37750000Y-106890000D02*
X37750000Y-109100000D01*
X44250000Y-109100000D02*
X44250000Y-106890000D01*
X44250000Y-109100000D02*
X37750000Y-109100000D01*
X98716000Y-94900000D02*
X105216000Y-94900000D01*
X98716000Y-94900000D02*
X98716000Y-97110000D01*
X105216000Y-97110000D02*
X105216000Y-94900000D01*
X105216000Y-97110000D02*
X98716000Y-97110000D01*
X112250000Y-105110000D02*
X105750000Y-105110000D01*
X112250000Y-105110000D02*
X112250000Y-102900000D01*
X105750000Y-102900000D02*
X105750000Y-105110000D01*
X105750000Y-102900000D02*
X112250000Y-102900000D01*
X112250000Y-101100000D02*
X105750000Y-101100000D01*
X112250000Y-101100000D02*
X112250000Y-98890000D01*
X105750000Y-98890000D02*
X105750000Y-101100000D01*
X105750000Y-98890000D02*
X112250000Y-98890000D01*
X51750000Y-94890000D02*
X58250000Y-94890000D01*
X51750000Y-94890000D02*
X51750000Y-97100000D01*
X58250000Y-97100000D02*
X58250000Y-94890000D01*
X58250000Y-97100000D02*
X51750000Y-97100000D01*
X91250000Y-97100000D02*
X84750000Y-97100000D01*
X91250000Y-97100000D02*
X91250000Y-94890000D01*
X84750000Y-94890000D02*
X84750000Y-97100000D01*
X84750000Y-94890000D02*
X91250000Y-94890000D01*
X77750000Y-94890000D02*
X84250000Y-94890000D01*
X77750000Y-94890000D02*
X77750000Y-97100000D01*
X84250000Y-97100000D02*
X84250000Y-94890000D01*
X84250000Y-97100000D02*
X77750000Y-97100000D01*
X65750000Y-94900000D02*
X72250000Y-94900000D01*
X65750000Y-94900000D02*
X65750000Y-97110000D01*
X72250000Y-97110000D02*
X72250000Y-94900000D01*
X72250000Y-97110000D02*
X65750000Y-97110000D01*
X51250000Y-105110000D02*
X44750000Y-105110000D01*
X51250000Y-105110000D02*
X51250000Y-102900000D01*
X44750000Y-102900000D02*
X44750000Y-105110000D01*
X44750000Y-102900000D02*
X51250000Y-102900000D01*
X84750000Y-98900000D02*
X91250000Y-98900000D01*
X84750000Y-98900000D02*
X84750000Y-101110000D01*
X91250000Y-101110000D02*
X91250000Y-98900000D01*
X91250000Y-101110000D02*
X84750000Y-101110000D01*
X91750000Y-98900000D02*
X98250000Y-98900000D01*
X91750000Y-98900000D02*
X91750000Y-101110000D01*
X98250000Y-101110000D02*
X98250000Y-98900000D01*
X98250000Y-101110000D02*
X91750000Y-101110000D01*
X105250000Y-101110000D02*
X98750000Y-101110000D01*
X105250000Y-101110000D02*
X105250000Y-98900000D01*
X98750000Y-98900000D02*
X98750000Y-101110000D01*
X98750000Y-98900000D02*
X105250000Y-98900000D01*
X51250000Y-101100000D02*
X44750000Y-101100000D01*
X51250000Y-101100000D02*
X51250000Y-98890000D01*
X44750000Y-98890000D02*
X44750000Y-101100000D01*
X44750000Y-98890000D02*
X51250000Y-98890000D01*
X51750000Y-98890000D02*
X58250000Y-98890000D01*
X51750000Y-98890000D02*
X51750000Y-101100000D01*
X58250000Y-101100000D02*
X58250000Y-98890000D01*
X58250000Y-101100000D02*
X51750000Y-101100000D01*
X77750000Y-98900000D02*
X84250000Y-98900000D01*
X77750000Y-98900000D02*
X77750000Y-101110000D01*
X84250000Y-101110000D02*
X84250000Y-98900000D01*
X84250000Y-101110000D02*
X77750000Y-101110000D01*
X51250000Y-133110000D02*
X44750000Y-133110000D01*
X51250000Y-133110000D02*
X51250000Y-130900000D01*
X44750000Y-130900000D02*
X44750000Y-133110000D01*
X44750000Y-130900000D02*
X51250000Y-130900000D01*
X44250000Y-93100000D02*
X37750000Y-93100000D01*
X44250000Y-93100000D02*
X44250000Y-90890000D01*
X37750000Y-90890000D02*
X37750000Y-93100000D01*
X37750000Y-90890000D02*
X44250000Y-90890000D01*
X44250000Y-97110000D02*
X37750000Y-97110000D01*
X44250000Y-97110000D02*
X44250000Y-94900000D01*
X37750000Y-94900000D02*
X37750000Y-97110000D01*
X37750000Y-94900000D02*
X44250000Y-94900000D01*
X112250000Y-97100000D02*
X105750000Y-97100000D01*
X112250000Y-97100000D02*
X112250000Y-94890000D01*
X105750000Y-94890000D02*
X105750000Y-97100000D01*
X105750000Y-94890000D02*
X112250000Y-94890000D01*
X112250000Y-93110000D02*
X105750000Y-93110000D01*
X112250000Y-93110000D02*
X112250000Y-90900000D01*
X105750000Y-90900000D02*
X105750000Y-93110000D01*
X105750000Y-90900000D02*
X112250000Y-90900000D01*
X44750000Y-90900000D02*
X51250000Y-90900000D01*
X44750000Y-90900000D02*
X44750000Y-93110000D01*
X51250000Y-93110000D02*
X51250000Y-90900000D01*
X51250000Y-93110000D02*
X44750000Y-93110000D01*
X58250000Y-93110000D02*
X51750000Y-93110000D01*
X58250000Y-93110000D02*
X58250000Y-90900000D01*
X51750000Y-90900000D02*
X51750000Y-93110000D01*
X51750000Y-90900000D02*
X58250000Y-90900000D01*
X98750000Y-112900000D02*
X105250000Y-112900000D01*
X98750000Y-112900000D02*
X98750000Y-115110000D01*
X105250000Y-115110000D02*
X105250000Y-112900000D01*
X105250000Y-115110000D02*
X98750000Y-115110000D01*
X98250000Y-97110000D02*
X91750000Y-97110000D01*
X98250000Y-97110000D02*
X98250000Y-94900000D01*
X91750000Y-94900000D02*
X91750000Y-97110000D01*
X91750000Y-94900000D02*
X98250000Y-94900000D01*
X58750000Y-94900000D02*
X65250000Y-94900000D01*
X58750000Y-94900000D02*
X58750000Y-97110000D01*
X65250000Y-97110000D02*
X65250000Y-94900000D01*
X65250000Y-97110000D02*
X58750000Y-97110000D01*
X58750000Y-112890000D02*
X65250000Y-112890000D01*
X58750000Y-112890000D02*
X58750000Y-115100000D01*
X65250000Y-115100000D02*
X65250000Y-112890000D01*
X65250000Y-115100000D02*
X58750000Y-115100000D01*
X84750000Y-112900000D02*
X91250000Y-112900000D01*
X84750000Y-112900000D02*
X84750000Y-115110000D01*
X91250000Y-115110000D02*
X91250000Y-112900000D01*
X91250000Y-115110000D02*
X84750000Y-115110000D01*
X98250000Y-115110000D02*
X91750000Y-115110000D01*
X98250000Y-115110000D02*
X98250000Y-112900000D01*
X91750000Y-112900000D02*
X91750000Y-115110000D01*
X91750000Y-112900000D02*
X98250000Y-112900000D01*
X51250000Y-115100000D02*
X44750000Y-115100000D01*
X51250000Y-115100000D02*
X51250000Y-112890000D01*
X44750000Y-112890000D02*
X44750000Y-115100000D01*
X44750000Y-112890000D02*
X51250000Y-112890000D01*
X37750000Y-112890000D02*
X44250000Y-112890000D01*
X37750000Y-112890000D02*
X37750000Y-115100000D01*
X44250000Y-115100000D02*
X44250000Y-112890000D01*
X44250000Y-115100000D02*
X37750000Y-115100000D01*
X72250000Y-101100000D02*
X65750000Y-101100000D01*
X72250000Y-101100000D02*
X72250000Y-98890000D01*
X65750000Y-98890000D02*
X65750000Y-101100000D01*
X65750000Y-98890000D02*
X72250000Y-98890000D01*
X112250000Y-115110000D02*
X105750000Y-115110000D01*
X112250000Y-115110000D02*
X112250000Y-112900000D01*
X105750000Y-112900000D02*
X105750000Y-115110000D01*
X105750000Y-112900000D02*
X112250000Y-112900000D01*
X105250000Y-93100000D02*
X98750000Y-93100000D01*
X105250000Y-93100000D02*
X105250000Y-90890000D01*
X98750000Y-90890000D02*
X98750000Y-93100000D01*
X98750000Y-90890000D02*
X105250000Y-90890000D01*
X72250000Y-109110000D02*
X65750000Y-109110000D01*
X72250000Y-109110000D02*
X72250000Y-106900000D01*
X65750000Y-106900000D02*
X65750000Y-109110000D01*
X65750000Y-106900000D02*
X72250000Y-106900000D01*
X91250000Y-133100000D02*
X84750000Y-133100000D01*
X91250000Y-133100000D02*
X91250000Y-130890000D01*
X84750000Y-130890000D02*
X84750000Y-133100000D01*
X84750000Y-130890000D02*
X91250000Y-130890000D01*
X51250000Y-109110000D02*
X44750000Y-109110000D01*
X51250000Y-109110000D02*
X51250000Y-106900000D01*
X44750000Y-106900000D02*
X44750000Y-109110000D01*
X44750000Y-106900000D02*
X51250000Y-106900000D01*
X72250000Y-105100000D02*
X65750000Y-105100000D01*
X72250000Y-105100000D02*
X72250000Y-102890000D01*
X65750000Y-102890000D02*
X65750000Y-105100000D01*
X65750000Y-102890000D02*
X72250000Y-102890000D01*
X98250000Y-109110000D02*
X91750000Y-109110000D01*
X98250000Y-109110000D02*
X98250000Y-106900000D01*
X91750000Y-106900000D02*
X91750000Y-109110000D01*
X91750000Y-106900000D02*
X98250000Y-106900000D01*
X77750000Y-102900000D02*
X84250000Y-102900000D01*
X77750000Y-102900000D02*
X77750000Y-105110000D01*
X84250000Y-105110000D02*
X84250000Y-102900000D01*
X84250000Y-105110000D02*
X77750000Y-105110000D01*
X65250000Y-109110000D02*
X58750000Y-109110000D01*
X65250000Y-109110000D02*
X65250000Y-106900000D01*
X58750000Y-106900000D02*
X58750000Y-109110000D01*
X58750000Y-106900000D02*
X65250000Y-106900000D01*
X91250000Y-109100000D02*
X84750000Y-109100000D01*
X91250000Y-109100000D02*
X91250000Y-106890000D01*
X84750000Y-106890000D02*
X84750000Y-109100000D01*
X84750000Y-106890000D02*
X91250000Y-106890000D01*
X91250000Y-105110000D02*
X84750000Y-105110000D01*
X91250000Y-105110000D02*
X91250000Y-102900000D01*
X84750000Y-102900000D02*
X84750000Y-105110000D01*
X84750000Y-102900000D02*
X91250000Y-102900000D01*
X105750000Y-106900000D02*
X112250000Y-106900000D01*
X105750000Y-106900000D02*
X105750000Y-109110000D01*
X112250000Y-109110000D02*
X112250000Y-106900000D01*
X112250000Y-109110000D02*
X105750000Y-109110000D01*
X84250000Y-109100000D02*
X77750000Y-109100000D01*
X84250000Y-109100000D02*
X84250000Y-106890000D01*
X77750000Y-106890000D02*
X77750000Y-109100000D01*
X77750000Y-106890000D02*
X84250000Y-106890000D01*
X58750000Y-102890000D02*
X65250000Y-102890000D01*
X58750000Y-102890000D02*
X58750000Y-105100000D01*
X65250000Y-105100000D02*
X65250000Y-102890000D01*
X65250000Y-105100000D02*
X58750000Y-105100000D01*
X58250000Y-109100000D02*
X51750000Y-109100000D01*
X58250000Y-109100000D02*
X58250000Y-106890000D01*
X51750000Y-106890000D02*
X51750000Y-109100000D01*
X51750000Y-106890000D02*
X58250000Y-106890000D01*
X98750000Y-106890000D02*
X105250000Y-106890000D01*
X98750000Y-106890000D02*
X98750000Y-109100000D01*
X105250000Y-109100000D02*
X105250000Y-106890000D01*
X105250000Y-109100000D02*
X98750000Y-109100000D01*
X105136000Y-105100000D02*
X98636000Y-105100000D01*
X105136000Y-105100000D02*
X105136000Y-102890000D01*
X98636000Y-102890000D02*
X98636000Y-105100000D01*
X98636000Y-102890000D02*
X105136000Y-102890000D01*
X195150000Y-99965000D02*
X195150000Y-107425000D01*
X200550000Y-99965000D02*
X200550000Y-107425000D01*
X200550000Y-107425000D02*
X195150000Y-107425000D01*
X200550000Y-99965000D02*
X195150000Y-99965000D01*
X151986000Y-98886000D02*
X151986000Y-106346000D01*
X157386000Y-98886000D02*
X157386000Y-106346000D01*
X157386000Y-106346000D02*
X151986000Y-106346000D01*
X157386000Y-98886000D02*
X151986000Y-98886000D01*
X159366000Y-101382000D02*
X159366000Y-105882000D01*
X159366000Y-101382000D02*
X157616000Y-101382000D01*
X157616000Y-105882000D02*
X159366000Y-105882000D01*
X157616000Y-105882000D02*
X157616000Y-101382000D01*
X125940000Y-118670000D02*
X133140000Y-118670000D01*
X133140000Y-118670000D02*
X133140000Y-109870000D01*
X133140000Y-109870000D02*
X125940000Y-109870000D01*
X125940000Y-109870000D02*
X125940000Y-118670000D01*
X167362000Y-94794000D02*
X167362000Y-101294000D01*
X167362000Y-94794000D02*
X164362000Y-94794000D01*
X164362000Y-101294000D02*
X167362000Y-101294000D01*
X164362000Y-101294000D02*
X164362000Y-94794000D01*
X160552000Y-101294000D02*
X160552000Y-94794000D01*
X160552000Y-101294000D02*
X163552000Y-101294000D01*
X163552000Y-94794000D02*
X160552000Y-94794000D01*
X163552000Y-94794000D02*
X163552000Y-101294000D01*
X167362000Y-101906000D02*
X167362000Y-108406000D01*
X167362000Y-101906000D02*
X164362000Y-101906000D01*
X164362000Y-108406000D02*
X167362000Y-108406000D01*
X164362000Y-108406000D02*
X164362000Y-101906000D01*
X160552000Y-108406000D02*
X160552000Y-101906000D01*
X160552000Y-108406000D02*
X163552000Y-108406000D01*
X163552000Y-101906000D02*
X160552000Y-101906000D01*
X163552000Y-101906000D02*
X163552000Y-108406000D01*
X147344000Y-108406000D02*
X147344000Y-101906000D01*
X147344000Y-108406000D02*
X150344000Y-108406000D01*
X150344000Y-101906000D02*
X147344000Y-101906000D01*
X150344000Y-101906000D02*
X150344000Y-108406000D01*
X147344000Y-99262000D02*
X147344000Y-92762000D01*
X147344000Y-99262000D02*
X150344000Y-99262000D01*
X150344000Y-92762000D02*
X147344000Y-92762000D01*
X150344000Y-92762000D02*
X150344000Y-99262000D01*
X151868000Y-88924000D02*
X148868000Y-88924000D01*
X151868000Y-91924000D02*
X151868000Y-88924000D01*
X148868000Y-91924000D02*
X151868000Y-91924000D01*
X148868000Y-88924000D02*
X148868000Y-91924000D01*
X164060000Y-88924000D02*
X161060000Y-88924000D01*
X164060000Y-91924000D02*
X164060000Y-88924000D01*
X161060000Y-91924000D02*
X164060000Y-91924000D01*
X161060000Y-88924000D02*
X161060000Y-91924000D01*
X155766000Y-108596000D02*
X151066000Y-108596000D01*
X155766000Y-108596000D02*
X155766000Y-106796000D01*
X151066000Y-106796000D02*
X151066000Y-108596000D01*
X151066000Y-106796000D02*
X155766000Y-106796000D01*
X155766000Y-111136000D02*
X151066000Y-111136000D01*
X155766000Y-111136000D02*
X155766000Y-109336000D01*
X151066000Y-109336000D02*
X151066000Y-111136000D01*
X151066000Y-109336000D02*
X155766000Y-109336000D01*
X158306000Y-97166000D02*
X153606000Y-97166000D01*
X158306000Y-97166000D02*
X158306000Y-95366000D01*
X153606000Y-95366000D02*
X153606000Y-97166000D01*
X153606000Y-95366000D02*
X158306000Y-95366000D01*
X160846000Y-111136000D02*
X156146000Y-111136000D01*
X160846000Y-111136000D02*
X160846000Y-109336000D01*
X156146000Y-109336000D02*
X156146000Y-111136000D01*
X156146000Y-109336000D02*
X160846000Y-109336000D01*
X158306000Y-94626000D02*
X153606000Y-94626000D01*
X158306000Y-94626000D02*
X158306000Y-92826000D01*
X153606000Y-92826000D02*
X153606000Y-94626000D01*
X153606000Y-92826000D02*
X158306000Y-92826000D01*
X163386000Y-94626000D02*
X158686000Y-94626000D01*
X163386000Y-94626000D02*
X163386000Y-92826000D01*
X158686000Y-92826000D02*
X158686000Y-94626000D01*
X158686000Y-92826000D02*
X163386000Y-92826000D01*
X248370000Y-87074000D02*
X262170000Y-87074000D01*
X262170000Y-87074000D02*
X262170000Y-93774000D01*
X262170000Y-93774000D02*
X248370000Y-93774000D01*
X248370000Y-93774000D02*
X248370000Y-87074000D01*
X262170000Y-117300000D02*
X262170000Y-124000000D01*
X248370000Y-117300000D02*
X262170000Y-117300000D01*
X248370000Y-124000000D02*
X248370000Y-117300000D01*
X262170000Y-124000000D02*
X248370000Y-124000000D01*
X215900000Y-96700000D02*
X222600000Y-96700000D01*
X215900000Y-110500000D02*
X215900000Y-96700000D01*
X222600000Y-110500000D02*
X215900000Y-110500000D01*
X222600000Y-96700000D02*
X222600000Y-110500000D01*
X214850000Y-100100000D02*
X214850000Y-113900000D01*
X214850000Y-113900000D02*
X208150000Y-113900000D01*
X208150000Y-113900000D02*
X208150000Y-100100000D01*
X208150000Y-100100000D02*
X214850000Y-100100000D01*
X208280000Y-114480000D02*
X214980000Y-114480000D01*
X208280000Y-128280000D02*
X208280000Y-114480000D01*
X214980000Y-128280000D02*
X208280000Y-128280000D01*
X214980000Y-114480000D02*
X214980000Y-128280000D01*
X222600000Y-82730000D02*
X222600000Y-96530000D01*
X222600000Y-96530000D02*
X215900000Y-96530000D01*
X215900000Y-96530000D02*
X215900000Y-82730000D01*
X215900000Y-82730000D02*
X222600000Y-82730000D01*
X218000000Y-41750000D02*
X226500000Y-41750000D01*
X174940000Y-151404000D02*
X174940000Y-141304000D01*
X169540000Y-151404000D02*
X174940000Y-151404000D01*
X169540000Y-141304000D02*
X169540000Y-151404000D01*
X174940000Y-141304000D02*
X169540000Y-141304000D01*
X230870000Y-57430000D02*
X240670000Y-57430000D01*
X230870000Y-36580000D02*
X230870000Y-57430000D01*
X240670000Y-36580000D02*
X230870000Y-36580000D01*
X240670000Y-57430000D02*
X240670000Y-36580000D01*
X120352000Y-51656000D02*
X120352000Y-57056000D01*
X127812000Y-51656000D02*
X127812000Y-57056000D01*
X120352000Y-51656000D02*
X127812000Y-51656000D01*
X120352000Y-57056000D02*
X127812000Y-57056000D01*
X120352000Y-66642000D02*
X120352000Y-72042000D01*
X127812000Y-66642000D02*
X127812000Y-72042000D01*
X120352000Y-66642000D02*
X127812000Y-66642000D01*
X120352000Y-72042000D02*
X127812000Y-72042000D01*
X178450000Y-138240000D02*
X178450000Y-145700000D01*
X183850000Y-138240000D02*
X183850000Y-145700000D01*
X183850000Y-145700000D02*
X178450000Y-145700000D01*
X183850000Y-138240000D02*
X178450000Y-138240000D01*
X207710000Y-158910000D02*
X215170000Y-158910000D01*
X207710000Y-153510000D02*
X215170000Y-153510000D01*
X215170000Y-153510000D02*
X215170000Y-158910000D01*
X207710000Y-153510000D02*
X207710000Y-158910000D01*
X176340000Y-120750000D02*
X181040000Y-120750000D01*
X176340000Y-120750000D02*
X176340000Y-122550000D01*
X181040000Y-122550000D02*
X181040000Y-120750000D01*
X181040000Y-122550000D02*
X176340000Y-122550000D01*
X225320000Y-115970000D02*
X225320000Y-124270000D01*
X225320000Y-124270000D02*
X236020000Y-124270000D01*
X236020000Y-124270000D02*
X236020000Y-115970000D01*
X236020000Y-115970000D02*
X225320000Y-115970000D01*
X236020000Y-88030000D02*
X225320000Y-88030000D01*
X236020000Y-96330000D02*
X236020000Y-88030000D01*
X225320000Y-96330000D02*
X236020000Y-96330000D01*
X225320000Y-88030000D02*
X225320000Y-96330000D01*
X201304000Y-107406000D02*
X201304000Y-102906000D01*
X201304000Y-107406000D02*
X203054000Y-107406000D01*
X203054000Y-102906000D02*
X201304000Y-102906000D01*
X203054000Y-102906000D02*
X203054000Y-107406000D01*
X185909000Y-141133000D02*
X185909000Y-145633000D01*
X185909000Y-141133000D02*
X184159000Y-141133000D01*
X184159000Y-145633000D02*
X185909000Y-145633000D01*
X184159000Y-145633000D02*
X184159000Y-141133000D01*
X177076000Y-123288000D02*
X180556000Y-123288000D01*
X177076000Y-129188000D02*
X177076000Y-123288000D01*
X180556000Y-129188000D02*
X177076000Y-129188000D01*
X180556000Y-123288000D02*
X180556000Y-129188000D01*
X185830000Y-153759000D02*
X179930000Y-153759000D01*
X179930000Y-153759000D02*
X179930000Y-150279000D01*
X179930000Y-150279000D02*
X185830000Y-150279000D01*
X185830000Y-150279000D02*
X185830000Y-153759000D01*
X205050000Y-56710000D02*
X205050000Y-65210000D01*
X205050000Y-56710000D02*
X201350000Y-56710000D01*
X201350000Y-65210000D02*
X205050000Y-65210000D01*
X201350000Y-65210000D02*
X201350000Y-56710000D01*
X148010000Y-57590000D02*
X148010000Y-49090000D01*
X148010000Y-57590000D02*
X151710000Y-57590000D01*
X151710000Y-49090000D02*
X148010000Y-49090000D01*
X151710000Y-49090000D02*
X151710000Y-57590000D01*
X137980000Y-57590000D02*
X137980000Y-49090000D01*
X137980000Y-57590000D02*
X141680000Y-57590000D01*
X141680000Y-49090000D02*
X137980000Y-49090000D01*
X141680000Y-49090000D02*
X141680000Y-57590000D01*
X132770000Y-86546000D02*
X132770000Y-78046000D01*
X132770000Y-86546000D02*
X136470000Y-86546000D01*
X136470000Y-78046000D02*
X132770000Y-78046000D01*
X136470000Y-78046000D02*
X136470000Y-86546000D01*
X132152000Y-65092000D02*
X132152000Y-73592000D01*
X132152000Y-65092000D02*
X128452000Y-65092000D01*
X128452000Y-73592000D02*
X132152000Y-73592000D01*
X128452000Y-73592000D02*
X128452000Y-65092000D01*
X128706000Y-59622000D02*
X128706000Y-51122000D01*
X128706000Y-59622000D02*
X132406000Y-59622000D01*
X132406000Y-51122000D02*
X128706000Y-51122000D01*
X132406000Y-51122000D02*
X132406000Y-59622000D01*
X140534000Y-78046000D02*
X140534000Y-86546000D01*
X140534000Y-78046000D02*
X136834000Y-78046000D01*
X136834000Y-86546000D02*
X140534000Y-86546000D01*
X136834000Y-86546000D02*
X136834000Y-78046000D01*
X248964000Y-143074000D02*
X240464000Y-143074000D01*
X248964000Y-143074000D02*
X248964000Y-139374000D01*
X240464000Y-139374000D02*
X240464000Y-143074000D01*
X240464000Y-139374000D02*
X248964000Y-139374000D01*
X240464000Y-143660000D02*
X248964000Y-143660000D01*
X240464000Y-143660000D02*
X240464000Y-147360000D01*
X248964000Y-147360000D02*
X248964000Y-143660000D01*
X248964000Y-147360000D02*
X240464000Y-147360000D01*
X250118000Y-158174000D02*
X250118000Y-149674000D01*
X250118000Y-158174000D02*
X253818000Y-158174000D01*
X253818000Y-149674000D02*
X250118000Y-149674000D01*
X253818000Y-149674000D02*
X253818000Y-158174000D01*
X118800000Y-118060000D02*
X118800000Y-109560000D01*
X118800000Y-118060000D02*
X122500000Y-118060000D01*
X122500000Y-109560000D02*
X118800000Y-109560000D01*
X122500000Y-109560000D02*
X122500000Y-118060000D01*
X139010000Y-110020000D02*
X139010000Y-118520000D01*
X139010000Y-110020000D02*
X135310000Y-110020000D01*
X135310000Y-118520000D02*
X139010000Y-118520000D01*
X135310000Y-118520000D02*
X135310000Y-110020000D01*
X145490000Y-69410000D02*
X145490000Y-77910000D01*
X145490000Y-69410000D02*
X141790000Y-69410000D01*
X141790000Y-77910000D02*
X145490000Y-77910000D01*
X141790000Y-77910000D02*
X141790000Y-69410000D01*
X201350000Y-74280000D02*
X201350000Y-65780000D01*
X201350000Y-74280000D02*
X205050000Y-74280000D01*
X205050000Y-65780000D02*
X201350000Y-65780000D01*
X205050000Y-65780000D02*
X205050000Y-74280000D01*
X242800000Y-61400000D02*
X242800000Y-52900000D01*
X242800000Y-61400000D02*
X246500000Y-61400000D01*
X246500000Y-52900000D02*
X242800000Y-52900000D01*
X246500000Y-52900000D02*
X246500000Y-61400000D01*
X240010000Y-62810000D02*
X231510000Y-62810000D01*
X240010000Y-62810000D02*
X240010000Y-59110000D01*
X231510000Y-59110000D02*
X231510000Y-62810000D01*
X231510000Y-59110000D02*
X240010000Y-59110000D01*
X242800000Y-41080000D02*
X242800000Y-32580000D01*
X242800000Y-41080000D02*
X246500000Y-41080000D01*
X246500000Y-32580000D02*
X242800000Y-32580000D01*
X246500000Y-32580000D02*
X246500000Y-41080000D01*
X242800000Y-51240000D02*
X242800000Y-42740000D01*
X242800000Y-51240000D02*
X246500000Y-51240000D01*
X246500000Y-42740000D02*
X242800000Y-42740000D01*
X246500000Y-42740000D02*
X246500000Y-51240000D01*
X194890000Y-28770000D02*
X194890000Y-37270000D01*
X194890000Y-28770000D02*
X191190000Y-28770000D01*
X191190000Y-37270000D02*
X194890000Y-37270000D01*
X191190000Y-37270000D02*
X191190000Y-28770000D01*
X227140000Y-27660000D02*
X217340000Y-27660000D01*
X227140000Y-38360000D02*
X227140000Y-27660000D01*
X217340000Y-38360000D02*
X227140000Y-38360000D01*
X217340000Y-27660000D02*
X217340000Y-38360000D01*
X208750000Y-26600000D02*
X221050000Y-26600000D01*
X208750000Y-23400000D02*
X208750000Y-26600000D01*
X221050000Y-23400000D02*
X208750000Y-23400000D01*
X221050000Y-26600000D02*
X221050000Y-23400000D01*
X219958000Y-152890000D02*
X225558000Y-152890000D01*
X219958000Y-148290000D02*
X225558000Y-148290000D01*
X225558000Y-148290000D02*
X225558000Y-152890000D01*
X219958000Y-148290000D02*
X219958000Y-152890000D01*
X185090000Y-39110000D02*
X185090000Y-49810000D01*
X203540000Y-39110000D02*
X185090000Y-39110000D01*
X203540000Y-49810000D02*
X203540000Y-39110000D01*
X185090000Y-49810000D02*
X203540000Y-49810000D01*
X185690000Y-71530000D02*
X195190000Y-71530000D01*
X185690000Y-60530000D02*
X195190000Y-60530000D01*
X195190000Y-60530000D02*
X195190000Y-71530000D01*
X185690000Y-60530000D02*
X185690000Y-71530000D01*
X82190000Y-38770000D02*
X86690000Y-38770000D01*
X82190000Y-48670000D02*
X82190000Y-38770000D01*
X86690000Y-48670000D02*
X82190000Y-48670000D01*
X86690000Y-38770000D02*
X86690000Y-48670000D01*
X172190000Y-52890000D02*
X172190000Y-56490000D01*
X185940000Y-52890000D02*
X172190000Y-52890000D01*
X185940000Y-56490000D02*
X185940000Y-52890000D01*
X172190000Y-56490000D02*
X185940000Y-56490000D01*
X183360000Y-116080000D02*
X186560000Y-116080000D01*
X186560000Y-116080000D02*
X186560000Y-103780000D01*
X186560000Y-103780000D02*
X183360000Y-103780000D01*
X183360000Y-103780000D02*
X183360000Y-116080000D01*
X183360000Y-91080000D02*
X183360000Y-103380000D01*
X186560000Y-91080000D02*
X183360000Y-91080000D01*
X186560000Y-103380000D02*
X186560000Y-91080000D01*
X183360000Y-103380000D02*
X186560000Y-103380000D01*
X235530000Y-105580000D02*
X235530000Y-99080000D01*
X235530000Y-105580000D02*
X238530000Y-105580000D01*
X238530000Y-99080000D02*
X235530000Y-99080000D01*
X238530000Y-99080000D02*
X238530000Y-105580000D01*
X196950000Y-91210000D02*
X203450000Y-91210000D01*
X196950000Y-91210000D02*
X196950000Y-94210000D01*
X203450000Y-94210000D02*
X203450000Y-91210000D01*
X203450000Y-94210000D02*
X196950000Y-94210000D01*
X203450000Y-90400000D02*
X196950000Y-90400000D01*
X203450000Y-90400000D02*
X203450000Y-87400000D01*
X196950000Y-87400000D02*
X196950000Y-90400000D01*
X196950000Y-87400000D02*
X203450000Y-87400000D01*
X148750000Y-143500000D02*
X155250000Y-143500000D01*
X148750000Y-143500000D02*
X148750000Y-146500000D01*
X155250000Y-146500000D02*
X155250000Y-143500000D01*
X155250000Y-146500000D02*
X148750000Y-146500000D01*
X202180000Y-117800000D02*
X195680000Y-117800000D01*
X202180000Y-117800000D02*
X202180000Y-114800000D01*
X195680000Y-114800000D02*
X195680000Y-117800000D01*
X195680000Y-114800000D02*
X202180000Y-114800000D01*
X195680000Y-118610000D02*
X202180000Y-118610000D01*
X195680000Y-118610000D02*
X195680000Y-121610000D01*
X202180000Y-121610000D02*
X202180000Y-118610000D01*
X202180000Y-121610000D02*
X195680000Y-121610000D01*
X190600000Y-95750000D02*
X197100000Y-95750000D01*
X190600000Y-95750000D02*
X190600000Y-98750000D01*
X197100000Y-98750000D02*
X197100000Y-95750000D01*
X197100000Y-98750000D02*
X190600000Y-98750000D01*
X238530000Y-106700000D02*
X238530000Y-113200000D01*
X238530000Y-106700000D02*
X235530000Y-106700000D01*
X235530000Y-113200000D02*
X238530000Y-113200000D01*
X235530000Y-113200000D02*
X235530000Y-106700000D01*
X191080000Y-114470000D02*
X191080000Y-107970000D01*
X191080000Y-114470000D02*
X194080000Y-114470000D01*
X194080000Y-107970000D02*
X191080000Y-107970000D01*
X194080000Y-107970000D02*
X194080000Y-114470000D01*
X238034000Y-147790000D02*
X238034000Y-158490000D01*
X248834000Y-147790000D02*
X238034000Y-147790000D01*
X248834000Y-158490000D02*
X248834000Y-147790000D01*
X238034000Y-158490000D02*
X248834000Y-158490000D01*
X257860000Y-127160000D02*
X241220000Y-127160000D01*
X257860000Y-138460000D02*
X257860000Y-127160000D01*
X241220000Y-138460000D02*
X257860000Y-138460000D01*
X241220000Y-127160000D02*
X241220000Y-138460000D01*
X259500000Y-141550000D02*
X259500000Y-147900000D01*
X252450000Y-141550000D02*
X259500000Y-141550000D01*
X252450000Y-147900000D02*
X252450000Y-141550000D01*
X259500000Y-147900000D02*
X252450000Y-147900000D01*
X138170000Y-71410000D02*
X138170000Y-75910000D01*
X138170000Y-71410000D02*
X136420000Y-71410000D01*
X136420000Y-75910000D02*
X138170000Y-75910000D01*
X136420000Y-75910000D02*
X136420000Y-71410000D01*
X138960000Y-75930000D02*
X138960000Y-71430000D01*
X138960000Y-75930000D02*
X140710000Y-75930000D01*
X140710000Y-71430000D02*
X138960000Y-71430000D01*
X140710000Y-71430000D02*
X140710000Y-75930000D01*
X132470000Y-67020000D02*
X132470000Y-62520000D01*
X132470000Y-67020000D02*
X134220000Y-67020000D01*
X134220000Y-62520000D02*
X132470000Y-62520000D01*
X134220000Y-62520000D02*
X134220000Y-67020000D01*
X157920000Y-63890000D02*
X162420000Y-63890000D01*
X157920000Y-63890000D02*
X157920000Y-65640000D01*
X162420000Y-65640000D02*
X162420000Y-63890000D01*
X162420000Y-65640000D02*
X157920000Y-65640000D01*
X162400000Y-70720000D02*
X157900000Y-70720000D01*
X162400000Y-70720000D02*
X162400000Y-68970000D01*
X157900000Y-68970000D02*
X157900000Y-70720000D01*
X157900000Y-68970000D02*
X162400000Y-68970000D01*
X133880000Y-75910000D02*
X133880000Y-71410000D01*
X133880000Y-75910000D02*
X135630000Y-75910000D01*
X135630000Y-71410000D02*
X133880000Y-71410000D01*
X135630000Y-71410000D02*
X135630000Y-75910000D01*
X142630000Y-56860000D02*
X142630000Y-52360000D01*
X142630000Y-56860000D02*
X144380000Y-56860000D01*
X144380000Y-52360000D02*
X142630000Y-52360000D01*
X144380000Y-52360000D02*
X144380000Y-56860000D01*
X147174000Y-52360000D02*
X147174000Y-56860000D01*
X147174000Y-52360000D02*
X145424000Y-52360000D01*
X145424000Y-56860000D02*
X147174000Y-56860000D01*
X145424000Y-56860000D02*
X145424000Y-52360000D01*
X118272000Y-72222000D02*
X118272000Y-67722000D01*
X118272000Y-72222000D02*
X120022000Y-72222000D01*
X120022000Y-67722000D02*
X118272000Y-67722000D01*
X120022000Y-67722000D02*
X120022000Y-72222000D01*
X118002000Y-57368000D02*
X118002000Y-52868000D01*
X118002000Y-57368000D02*
X119752000Y-57368000D01*
X119752000Y-52868000D02*
X118002000Y-52868000D01*
X119752000Y-52868000D02*
X119752000Y-57368000D01*
X127726000Y-65842000D02*
X123226000Y-65842000D01*
X127726000Y-65842000D02*
X127726000Y-64092000D01*
X123226000Y-64092000D02*
X123226000Y-65842000D01*
X123226000Y-64092000D02*
X127726000Y-64092000D01*
X123226000Y-49106000D02*
X127726000Y-49106000D01*
X123226000Y-49106000D02*
X123226000Y-50856000D01*
X127726000Y-50856000D02*
X127726000Y-49106000D01*
X127726000Y-50856000D02*
X123226000Y-50856000D01*
X127726000Y-74286000D02*
X123226000Y-74286000D01*
X127726000Y-74286000D02*
X127726000Y-72536000D01*
X123226000Y-72536000D02*
X123226000Y-74286000D01*
X123226000Y-72536000D02*
X127726000Y-72536000D01*
X127726000Y-59300000D02*
X123226000Y-59300000D01*
X127726000Y-59300000D02*
X127726000Y-57550000D01*
X123226000Y-57550000D02*
X123226000Y-59300000D01*
X123226000Y-57550000D02*
X127726000Y-57550000D01*
X180050000Y-51670000D02*
X175550000Y-51670000D01*
X180050000Y-51670000D02*
X180050000Y-49920000D01*
X175550000Y-49920000D02*
X175550000Y-51670000D01*
X175550000Y-49920000D02*
X180050000Y-49920000D01*
X234880000Y-56860000D02*
X234880000Y-52360000D01*
X234880000Y-56860000D02*
X236630000Y-56860000D01*
X236630000Y-52360000D02*
X234880000Y-52360000D01*
X236630000Y-52360000D02*
X236630000Y-56860000D01*
X190190000Y-45320000D02*
X185690000Y-45320000D01*
X190190000Y-45320000D02*
X190190000Y-43570000D01*
X185690000Y-43570000D02*
X185690000Y-45320000D01*
X185690000Y-43570000D02*
X190190000Y-43570000D01*
X190210000Y-37700000D02*
X185710000Y-37700000D01*
X190210000Y-37700000D02*
X190210000Y-35950000D01*
X185710000Y-35950000D02*
X185710000Y-37700000D01*
X185710000Y-35950000D02*
X190210000Y-35950000D01*
X162932000Y-141006000D02*
X162932000Y-145506000D01*
X162932000Y-141006000D02*
X161182000Y-141006000D01*
X161182000Y-145506000D02*
X162932000Y-145506000D01*
X161182000Y-145506000D02*
X161182000Y-141006000D01*
X185030000Y-68616000D02*
X185030000Y-73116000D01*
X185030000Y-68616000D02*
X183280000Y-68616000D01*
X183280000Y-73116000D02*
X185030000Y-73116000D01*
X183280000Y-73116000D02*
X183280000Y-68616000D01*
X170690000Y-65650000D02*
X166190000Y-65650000D01*
X170690000Y-65650000D02*
X170690000Y-63900000D01*
X166190000Y-63900000D02*
X166190000Y-65650000D01*
X166190000Y-63900000D02*
X170690000Y-63900000D01*
X166190000Y-68980000D02*
X170690000Y-68980000D01*
X166190000Y-68980000D02*
X166190000Y-70730000D01*
X170690000Y-70730000D02*
X170690000Y-68980000D01*
X170690000Y-70730000D02*
X166190000Y-70730000D01*
X180232000Y-73116000D02*
X180232000Y-68616000D01*
X180232000Y-73116000D02*
X181982000Y-73116000D01*
X181982000Y-68616000D02*
X180232000Y-68616000D01*
X181982000Y-68616000D02*
X181982000Y-73116000D01*
X193176000Y-60162000D02*
X193176000Y-55662000D01*
X193176000Y-60162000D02*
X194926000Y-60162000D01*
X194926000Y-55662000D02*
X193176000Y-55662000D01*
X194926000Y-55662000D02*
X194926000Y-60162000D01*
X199000000Y-66330000D02*
X199000000Y-70830000D01*
X199000000Y-66330000D02*
X197250000Y-66330000D01*
X197250000Y-70830000D02*
X199000000Y-70830000D01*
X197250000Y-70830000D02*
X197250000Y-66330000D01*
X223160000Y-25080000D02*
X223160000Y-20580000D01*
X223160000Y-25080000D02*
X224910000Y-25080000D01*
X224910000Y-20580000D02*
X223160000Y-20580000D01*
X224910000Y-20580000D02*
X224910000Y-25080000D01*
X223130000Y-28230000D02*
X223130000Y-32730000D01*
X223130000Y-28230000D02*
X221380000Y-28230000D01*
X221380000Y-32730000D02*
X223130000Y-32730000D01*
X221380000Y-32730000D02*
X221380000Y-28230000D01*
X232530000Y-20580000D02*
X232530000Y-25080000D01*
X232530000Y-20580000D02*
X230780000Y-20580000D01*
X230780000Y-25080000D02*
X232530000Y-25080000D01*
X230780000Y-25080000D02*
X230780000Y-20580000D01*
X133060000Y-121500000D02*
X128560000Y-121500000D01*
X133060000Y-121500000D02*
X133060000Y-119750000D01*
X128560000Y-119750000D02*
X128560000Y-121500000D01*
X128560000Y-119750000D02*
X133060000Y-119750000D01*
X125330000Y-114082000D02*
X125330000Y-118582000D01*
X125330000Y-114082000D02*
X123580000Y-114082000D01*
X123580000Y-118582000D02*
X125330000Y-118582000D01*
X123580000Y-118582000D02*
X123580000Y-114082000D01*
X207340000Y-133690000D02*
X202840000Y-133690000D01*
X207340000Y-133690000D02*
X207340000Y-131940000D01*
X202840000Y-131940000D02*
X202840000Y-133690000D01*
X202840000Y-131940000D02*
X207340000Y-131940000D01*
X216554000Y-158714000D02*
X216554000Y-154214000D01*
X216554000Y-158714000D02*
X218304000Y-158714000D01*
X218304000Y-154214000D02*
X216554000Y-154214000D01*
X218304000Y-154214000D02*
X218304000Y-158714000D01*
X216554000Y-152872000D02*
X216554000Y-148372000D01*
X216554000Y-152872000D02*
X218304000Y-152872000D01*
X218304000Y-148372000D02*
X216554000Y-148372000D01*
X218304000Y-148372000D02*
X218304000Y-152872000D01*
X220508000Y-145910000D02*
X225008000Y-145910000D01*
X220508000Y-145910000D02*
X220508000Y-147660000D01*
X225008000Y-147660000D02*
X225008000Y-145910000D01*
X225008000Y-147660000D02*
X220508000Y-147660000D01*
X238500000Y-136330000D02*
X238500000Y-131830000D01*
X238500000Y-136330000D02*
X240250000Y-136330000D01*
X240250000Y-131830000D02*
X238500000Y-131830000D01*
X240250000Y-131830000D02*
X240250000Y-136330000D01*
X73750000Y-147500000D02*
X80250000Y-147500000D01*
X73750000Y-147500000D02*
X73750000Y-150500000D01*
X80250000Y-150500000D02*
X80250000Y-147500000D01*
X80250000Y-150500000D02*
X73750000Y-150500000D01*
X168740000Y-152790000D02*
X173240000Y-152790000D01*
X168740000Y-152790000D02*
X168740000Y-154540000D01*
X173240000Y-154540000D02*
X173240000Y-152790000D01*
X173240000Y-154540000D02*
X168740000Y-154540000D01*
X124500000Y-93163826D02*
X118050000Y-93163826D01*
X124500000Y-99663826D02*
X124500000Y-93163826D01*
X118050000Y-99663826D02*
X124500000Y-99663826D01*
X118050000Y-93163826D02*
X118050000Y-99663826D01*
X118050000Y-84543826D02*
X118050000Y-91043826D01*
X118050000Y-91043826D02*
X124500000Y-91043826D01*
X124500000Y-91043826D02*
X124500000Y-84543826D01*
X124500000Y-84543826D02*
X118050000Y-84543826D01*
X124500000Y-133910000D02*
X118050000Y-133910000D01*
X124500000Y-140410000D02*
X124500000Y-133910000D01*
X118050000Y-140410000D02*
X124500000Y-140410000D01*
X118050000Y-133910000D02*
X118050000Y-140410000D01*
X231070000Y-134790000D02*
X237520000Y-134790000D01*
X231070000Y-128290000D02*
X231070000Y-134790000D01*
X237520000Y-128290000D02*
X231070000Y-128290000D01*
X237520000Y-134790000D02*
X237520000Y-128290000D01*
X56848000Y-160316000D02*
X56848000Y-146516000D01*
X56848000Y-146516000D02*
X63548000Y-146516000D01*
X63548000Y-146516000D02*
X63548000Y-160316000D01*
X63548000Y-160316000D02*
X56848000Y-160316000D01*
X143610000Y-126140000D02*
X150110000Y-126140000D01*
X150110000Y-126140000D02*
X150110000Y-119690000D01*
X150110000Y-119690000D02*
X143610000Y-119690000D01*
X143610000Y-119690000D02*
X143610000Y-126140000D01*
X187026000Y-127306000D02*
X187026000Y-133806000D01*
X187026000Y-133806000D02*
X193476000Y-133806000D01*
X193476000Y-133806000D02*
X193476000Y-127306000D01*
X193476000Y-127306000D02*
X187026000Y-127306000D01*
X211256000Y-86412000D02*
X204806000Y-86412000D01*
X211256000Y-92912000D02*
X211256000Y-86412000D01*
X204806000Y-92912000D02*
X211256000Y-92912000D01*
X204806000Y-86412000D02*
X204806000Y-92912000D01*
X240490000Y-89080000D02*
X247190000Y-89080000D01*
X240490000Y-102880000D02*
X240490000Y-89080000D01*
X247190000Y-102880000D02*
X240490000Y-102880000D01*
X247190000Y-89080000D02*
X247190000Y-102880000D01*
X234030000Y-99240000D02*
X234030000Y-113040000D01*
X234030000Y-113040000D02*
X227330000Y-113040000D01*
X227330000Y-113040000D02*
X227330000Y-99240000D01*
X227330000Y-99240000D02*
X234030000Y-99240000D01*
X240490000Y-109400000D02*
X247190000Y-109400000D01*
X240490000Y-123200000D02*
X240490000Y-109400000D01*
X247190000Y-123200000D02*
X240490000Y-123200000D01*
X247190000Y-109400000D02*
X247190000Y-123200000D01*
X126500000Y-121950000D02*
X126500000Y-129450000D01*
X126500000Y-129450000D02*
X122800000Y-129450000D01*
X122800000Y-129450000D02*
X122800000Y-121950000D01*
X122800000Y-121950000D02*
X126500000Y-121950000D01*
X91200000Y-76350000D02*
X91200000Y-32350000D01*
X91200000Y-76350000D02*
X106800000Y-76350000D01*
X106800000Y-32350000D02*
X91200000Y-32350000D01*
X106800000Y-32350000D02*
X106800000Y-76350000D01*
X58800000Y-32350000D02*
X58800000Y-76350000D01*
X58800000Y-32350000D02*
X43200000Y-32350000D01*
X43200000Y-76350000D02*
X58800000Y-76350000D01*
X43200000Y-76350000D02*
X43200000Y-32350000D01*
X31450000Y-156000000D02*
G75*
G03X31450000Y-156000000I-3450000J0D01*
G01*
X123430000Y-156000000D02*
G75*
G03X123430000Y-156000000I-3450000J0D01*
G01*
X113450000Y-156000000D02*
G75*
G03X113450000Y-156000000I-3450000J0D01*
G01*
X31450000Y-28000000D02*
G75*
G03X31450000Y-28000000I-3450000J0D01*
G01*
X113450000Y-28000000D02*
G75*
G03X113450000Y-28000000I-3450000J0D01*
G01*
X261450000Y-28000000D02*
G75*
G03X261450000Y-28000000I-3450000J0D01*
G01*
X261430000Y-156000000D02*
G75*
G03X261430000Y-156000000I-3450000J0D01*
G01*
X123430000Y-28000000D02*
G75*
G03X123430000Y-28000000I-3450000J0D01*
G01*
X160427800Y-65784600D02*
X157427800Y-65784600D01*
X160427800Y-68784600D02*
X160427800Y-65784600D01*
X157427800Y-68784600D02*
X160427800Y-68784600D01*
X157427800Y-65784600D02*
X157427800Y-68784600D01*
X132564000Y-78002000D02*
X129564000Y-78002000D01*
X132564000Y-81002000D02*
X132564000Y-78002000D01*
X129564000Y-81002000D02*
X132564000Y-81002000D01*
X129564000Y-78002000D02*
X129564000Y-81002000D01*
X128932000Y-61472000D02*
X128932000Y-64472000D01*
X128932000Y-64472000D02*
X131932000Y-64472000D01*
X131932000Y-64472000D02*
X131932000Y-61472000D01*
X131932000Y-61472000D02*
X128932000Y-61472000D01*
X132056000Y-48284000D02*
X129056000Y-48284000D01*
X132056000Y-51284000D02*
X132056000Y-48284000D01*
X129056000Y-51284000D02*
X132056000Y-51284000D01*
X129056000Y-48284000D02*
X129056000Y-51284000D01*
X178320000Y-63620000D02*
X178320000Y-66620000D01*
X178320000Y-66620000D02*
X181320000Y-66620000D01*
X181320000Y-66620000D02*
X181320000Y-63620000D01*
X181320000Y-63620000D02*
X178320000Y-63620000D01*
X228500000Y-67500000D02*
X228500000Y-78500000D01*
X228500000Y-78500000D02*
X217500000Y-78500000D01*
X217500000Y-78500000D02*
X217500000Y-67500000D01*
X217500000Y-67500000D02*
X228500000Y-67500000D01*
X117880000Y-121708000D02*
X117880000Y-124708000D01*
X117880000Y-124708000D02*
X120880000Y-124708000D01*
X120880000Y-124708000D02*
X120880000Y-121708000D01*
X120880000Y-121708000D02*
X117880000Y-121708000D01*
X144756000Y-112546000D02*
X141756000Y-112546000D01*
X144756000Y-115546000D02*
X144756000Y-112546000D01*
X141756000Y-115546000D02*
X144756000Y-115546000D01*
X141756000Y-112546000D02*
X141756000Y-115546000D01*
X204240000Y-145566000D02*
X201240000Y-145566000D01*
X204240000Y-148566000D02*
X204240000Y-145566000D01*
X201240000Y-148566000D02*
X204240000Y-148566000D01*
X201240000Y-145566000D02*
X201240000Y-148566000D01*
X223798000Y-154710000D02*
X220798000Y-154710000D01*
X223798000Y-157710000D02*
X223798000Y-154710000D01*
X220798000Y-157710000D02*
X223798000Y-157710000D01*
X220798000Y-154710000D02*
X220798000Y-157710000D01*
X226338000Y-157504000D02*
X226338000Y-160504000D01*
X226338000Y-160504000D02*
X229338000Y-160504000D01*
X229338000Y-160504000D02*
X229338000Y-157504000D01*
X229338000Y-157504000D02*
X226338000Y-157504000D01*
X235784000Y-136930000D02*
X235784000Y-139930000D01*
X235784000Y-139930000D02*
X238784000Y-139930000D01*
X238784000Y-139930000D02*
X238784000Y-136930000D01*
X238784000Y-136930000D02*
X235784000Y-136930000D01*
X196699000Y-150392000D02*
X193699000Y-150392000D01*
X196699000Y-153392000D02*
X196699000Y-150392000D01*
X193699000Y-153392000D02*
X196699000Y-153392000D01*
X193699000Y-150392000D02*
X193699000Y-153392000D01*
X199160000Y-133120000D02*
X196160000Y-133120000D01*
X199160000Y-136120000D02*
X199160000Y-133120000D01*
X196160000Y-136120000D02*
X199160000Y-136120000D01*
X196160000Y-133120000D02*
X196160000Y-136120000D01*
X180364000Y-146836000D02*
X180364000Y-149836000D01*
X180364000Y-149836000D02*
X183364000Y-149836000D01*
X183364000Y-149836000D02*
X183364000Y-146836000D01*
X183364000Y-146836000D02*
X180364000Y-146836000D01*
X187270000Y-102132000D02*
X187270000Y-105132000D01*
X187270000Y-105132000D02*
X190270000Y-105132000D01*
X190270000Y-105132000D02*
X190270000Y-102132000D01*
X190270000Y-102132000D02*
X187270000Y-102132000D01*
X196572000Y-90702000D02*
X193572000Y-90702000D01*
X196572000Y-93702000D02*
X196572000Y-90702000D01*
X193572000Y-93702000D02*
X196572000Y-93702000D01*
X193572000Y-90702000D02*
X193572000Y-93702000D01*
X189000000Y-115340000D02*
X189000000Y-118340000D01*
X189000000Y-118340000D02*
X192000000Y-118340000D01*
X192000000Y-118340000D02*
X192000000Y-115340000D01*
X192000000Y-115340000D02*
X189000000Y-115340000D01*
X146530000Y-78670000D02*
X146530000Y-76270000D01*
X153730000Y-78670000D02*
X153730000Y-76270000D01*
X153730000Y-76270000D02*
X146530000Y-76270000D01*
X153730000Y-78670000D02*
X146530000Y-78670000D01*
X123176000Y-43804000D02*
X127876000Y-43804000D01*
X123176000Y-43804000D02*
X123176000Y-45604000D01*
X127876000Y-45604000D02*
X127876000Y-43804000D01*
X127876000Y-45604000D02*
X123176000Y-45604000D01*
X123176000Y-38724000D02*
X127876000Y-38724000D01*
X123176000Y-38724000D02*
X123176000Y-40524000D01*
X127876000Y-40524000D02*
X127876000Y-38724000D01*
X127876000Y-40524000D02*
X123176000Y-40524000D01*
X123176000Y-41264000D02*
X127876000Y-41264000D01*
X123176000Y-41264000D02*
X123176000Y-43064000D01*
X127876000Y-43064000D02*
X127876000Y-41264000D01*
X127876000Y-43064000D02*
X123176000Y-43064000D01*
X159780000Y-53530000D02*
X159780000Y-58230000D01*
X159780000Y-53530000D02*
X157980000Y-53530000D01*
X157980000Y-58230000D02*
X159780000Y-58230000D01*
X157980000Y-58230000D02*
X157980000Y-53530000D01*
X160520000Y-58150000D02*
X160520000Y-53450000D01*
X160520000Y-58150000D02*
X162320000Y-58150000D01*
X162320000Y-53450000D02*
X160520000Y-53450000D01*
X162320000Y-53450000D02*
X162320000Y-58150000D01*
X164860000Y-53450000D02*
X164860000Y-58150000D01*
X164860000Y-53450000D02*
X163060000Y-53450000D01*
X163060000Y-58150000D02*
X164860000Y-58150000D01*
X163060000Y-58150000D02*
X163060000Y-53450000D01*
X167400000Y-53450000D02*
X167400000Y-58150000D01*
X167400000Y-53450000D02*
X165600000Y-53450000D01*
X165600000Y-58150000D02*
X167400000Y-58150000D01*
X165600000Y-58150000D02*
X165600000Y-53450000D01*
X174890000Y-47180000D02*
X174890000Y-51880000D01*
X174890000Y-47180000D02*
X173090000Y-47180000D01*
X173090000Y-51880000D02*
X174890000Y-51880000D01*
X173090000Y-51880000D02*
X173090000Y-47180000D01*
X126314730Y-95513826D02*
X131014730Y-95513826D01*
X126314730Y-95513826D02*
X126314730Y-97313826D01*
X131014730Y-97313826D02*
X131014730Y-95513826D01*
X131014730Y-97313826D02*
X126314730Y-97313826D01*
X126314730Y-86893826D02*
X131014730Y-86893826D01*
X126314730Y-86893826D02*
X126314730Y-88693826D01*
X131014730Y-88693826D02*
X131014730Y-86893826D01*
X131014730Y-88693826D02*
X126314730Y-88693826D01*
X205370000Y-30670000D02*
X205370000Y-35370000D01*
X205370000Y-30670000D02*
X203570000Y-30670000D01*
X203570000Y-35370000D02*
X205370000Y-35370000D01*
X203570000Y-35370000D02*
X203570000Y-30670000D01*
X216980000Y-30110000D02*
X212280000Y-30110000D01*
X216980000Y-30110000D02*
X216980000Y-28310000D01*
X212280000Y-28310000D02*
X212280000Y-30110000D01*
X212280000Y-28310000D02*
X216980000Y-28310000D01*
X230010000Y-20480000D02*
X230010000Y-25180000D01*
X230010000Y-20480000D02*
X228210000Y-20480000D01*
X228210000Y-25180000D02*
X230010000Y-25180000D01*
X228210000Y-25180000D02*
X228210000Y-20480000D01*
X119750000Y-133160000D02*
X119750000Y-128460000D01*
X119750000Y-133160000D02*
X121550000Y-133160000D01*
X121550000Y-128460000D02*
X119750000Y-128460000D01*
X121550000Y-128460000D02*
X121550000Y-133160000D01*
X207148000Y-151828000D02*
X207148000Y-156528000D01*
X207148000Y-151828000D02*
X205348000Y-151828000D01*
X205348000Y-156528000D02*
X207148000Y-156528000D01*
X205348000Y-156528000D02*
X205348000Y-151828000D01*
X227558000Y-149050000D02*
X227558000Y-144350000D01*
X227558000Y-149050000D02*
X229358000Y-149050000D01*
X229358000Y-144350000D02*
X227558000Y-144350000D01*
X229358000Y-144350000D02*
X229358000Y-149050000D01*
X236904000Y-157840000D02*
X232204000Y-157840000D01*
X236904000Y-157840000D02*
X236904000Y-156040000D01*
X232204000Y-156040000D02*
X232204000Y-157840000D01*
X232204000Y-156040000D02*
X236904000Y-156040000D01*
X225600000Y-130640000D02*
X230300000Y-130640000D01*
X225600000Y-130640000D02*
X225600000Y-132440000D01*
X230300000Y-132440000D02*
X230300000Y-130640000D01*
X230300000Y-132440000D02*
X225600000Y-132440000D01*
X34296000Y-23648000D02*
X34296000Y-48948000D01*
X41396000Y-23648000D02*
X34296000Y-23648000D01*
X41396000Y-48948000D02*
X41396000Y-23648000D01*
X34296000Y-48948000D02*
X41396000Y-48948000D01*
X144510000Y-133450000D02*
X149210000Y-133450000D01*
X144510000Y-133450000D02*
X144510000Y-135250000D01*
X149210000Y-135250000D02*
X149210000Y-133450000D01*
X149210000Y-135250000D02*
X144510000Y-135250000D01*
X160350000Y-155900000D02*
X155650000Y-155900000D01*
X160350000Y-155900000D02*
X160350000Y-154100000D01*
X155650000Y-154100000D02*
X155650000Y-155900000D01*
X155650000Y-154100000D02*
X160350000Y-154100000D01*
X144590000Y-128370000D02*
X149290000Y-128370000D01*
X144590000Y-128370000D02*
X144590000Y-130170000D01*
X149290000Y-130170000D02*
X149290000Y-128370000D01*
X149290000Y-130170000D02*
X144590000Y-130170000D01*
X176970000Y-147240000D02*
X176970000Y-151940000D01*
X176970000Y-147240000D02*
X175170000Y-147240000D01*
X175170000Y-151940000D02*
X176970000Y-151940000D01*
X175170000Y-151940000D02*
X175170000Y-147240000D01*
X178980000Y-136700000D02*
X178980000Y-132000000D01*
X178980000Y-136700000D02*
X180780000Y-136700000D01*
X180780000Y-132000000D02*
X178980000Y-132000000D01*
X180780000Y-132000000D02*
X180780000Y-136700000D01*
X183320000Y-132080000D02*
X183320000Y-136780000D01*
X183320000Y-132080000D02*
X181520000Y-132080000D01*
X181520000Y-136780000D02*
X183320000Y-136780000D01*
X181520000Y-136780000D02*
X181520000Y-132080000D01*
X178240000Y-131920000D02*
X178240000Y-136620000D01*
X178240000Y-131920000D02*
X176440000Y-131920000D01*
X176440000Y-136620000D02*
X178240000Y-136620000D01*
X176440000Y-136620000D02*
X176440000Y-131920000D01*
X184060000Y-136780000D02*
X184060000Y-132080000D01*
X184060000Y-136780000D02*
X185860000Y-136780000D01*
X185860000Y-132080000D02*
X184060000Y-132080000D01*
X185860000Y-132080000D02*
X185860000Y-136780000D01*
X179510000Y-147240000D02*
X179510000Y-151940000D01*
X179510000Y-147240000D02*
X177710000Y-147240000D01*
X177710000Y-151940000D02*
X179510000Y-151940000D01*
X177710000Y-151940000D02*
X177710000Y-147240000D01*
X193283000Y-141725137D02*
X193283000Y-137025137D01*
X193283000Y-141725137D02*
X195083000Y-141725137D01*
X195083000Y-137025137D02*
X193283000Y-137025137D01*
X195083000Y-137025137D02*
X195083000Y-141725137D01*
X195083000Y-143446000D02*
X195083000Y-148146000D01*
X195083000Y-143446000D02*
X193283000Y-143446000D01*
X193283000Y-148146000D02*
X195083000Y-148146000D01*
X193283000Y-148146000D02*
X193283000Y-143446000D01*
X196760000Y-141725137D02*
X196760000Y-137025137D01*
X196760000Y-141725137D02*
X198560000Y-141725137D01*
X198560000Y-137025137D02*
X196760000Y-137025137D01*
X198560000Y-137025137D02*
X198560000Y-141725137D01*
X196760000Y-148146000D02*
X196760000Y-143446000D01*
X196760000Y-148146000D02*
X198560000Y-148146000D01*
X198560000Y-143446000D02*
X196760000Y-143446000D01*
X198560000Y-143446000D02*
X198560000Y-148146000D01*
X215884000Y-90562000D02*
X211184000Y-90562000D01*
X215884000Y-90562000D02*
X215884000Y-88762000D01*
X211184000Y-88762000D02*
X211184000Y-90562000D01*
X211184000Y-88762000D02*
X215884000Y-88762000D01*
X204120000Y-95080000D02*
X208820000Y-95080000D01*
X204120000Y-95080000D02*
X204120000Y-96880000D01*
X208820000Y-96880000D02*
X208820000Y-95080000D01*
X208820000Y-96880000D02*
X204120000Y-96880000D01*
X200342000Y-111590000D02*
X205042000Y-111590000D01*
X200342000Y-111590000D02*
X200342000Y-113390000D01*
X205042000Y-113390000D02*
X205042000Y-111590000D01*
X205042000Y-113390000D02*
X200342000Y-113390000D01*
X197770000Y-95080000D02*
X202470000Y-95080000D01*
X197770000Y-95080000D02*
X197770000Y-96880000D01*
X202470000Y-96880000D02*
X202470000Y-95080000D01*
X202470000Y-96880000D02*
X197770000Y-96880000D01*
X199962000Y-113390000D02*
X195262000Y-113390000D01*
X199962000Y-113390000D02*
X199962000Y-111590000D01*
X195262000Y-111590000D02*
X195262000Y-113390000D01*
X195262000Y-111590000D02*
X199962000Y-111590000D01*
X197850000Y-97620000D02*
X202550000Y-97620000D01*
X197850000Y-97620000D02*
X197850000Y-99420000D01*
X202550000Y-99420000D02*
X202550000Y-97620000D01*
X202550000Y-99420000D02*
X197850000Y-99420000D01*
X199962000Y-110850000D02*
X195262000Y-110850000D01*
X199962000Y-110850000D02*
X199962000Y-109050000D01*
X195262000Y-109050000D02*
X195262000Y-110850000D01*
X195262000Y-109050000D02*
X199962000Y-109050000D01*
X207900000Y-59220000D02*
X207900000Y-72820000D01*
X211200000Y-59220000D02*
X207900000Y-59220000D01*
X211200000Y-72820000D02*
X211200000Y-59220000D01*
X207900000Y-72820000D02*
X211200000Y-72820000D01*
X235984000Y-144260000D02*
X230584000Y-144260000D01*
X230584000Y-144260000D02*
X230584000Y-154360000D01*
X230584000Y-154360000D02*
X235984000Y-154360000D01*
X235984000Y-154360000D02*
X235984000Y-144260000D01*
X154700000Y-157500000D02*
X154700000Y-147400000D01*
X149300000Y-157500000D02*
X154700000Y-157500000D01*
X149300000Y-147400000D02*
X149300000Y-157500000D01*
X154700000Y-147400000D02*
X149300000Y-147400000D01*
X154700000Y-141930000D02*
X154700000Y-131830000D01*
X149300000Y-141930000D02*
X154700000Y-141930000D01*
X149300000Y-131830000D02*
X149300000Y-141930000D01*
X154700000Y-131830000D02*
X149300000Y-131830000D01*
X174960000Y-140660000D02*
X174960000Y-130560000D01*
X169560000Y-140660000D02*
X174960000Y-140660000D01*
X169560000Y-130560000D02*
X169560000Y-140660000D01*
X174960000Y-130560000D02*
X169560000Y-130560000D01*
X169560000Y-130520000D02*
X174960000Y-130520000D01*
X174960000Y-130520000D02*
X174960000Y-120420000D01*
X174960000Y-120420000D02*
X169560000Y-120420000D01*
X169560000Y-120420000D02*
X169560000Y-130520000D01*
X186911000Y-156952000D02*
X192311000Y-156952000D01*
X192311000Y-156952000D02*
X192311000Y-146852000D01*
X192311000Y-146852000D02*
X186911000Y-146852000D01*
X186911000Y-146852000D02*
X186911000Y-156952000D01*
X201540000Y-136410000D02*
X201540000Y-142910000D01*
X222616000Y-134842000D02*
X202804000Y-134842000D01*
X222616000Y-143478000D02*
X222616000Y-134842000D01*
X201534000Y-143478000D02*
X222616000Y-143478000D01*
X167440000Y-132750000D02*
X156740000Y-132750000D01*
X167440000Y-153750000D02*
X167440000Y-132750000D01*
X156740000Y-153750000D02*
X167440000Y-153750000D01*
X156740000Y-132750000D02*
X156740000Y-153750000D01*
X158330000Y-125600000D02*
X158330000Y-130400000D01*
X158330000Y-130400000D02*
X150630000Y-130400000D01*
X150630000Y-130400000D02*
X150630000Y-125600000D01*
X150630000Y-125600000D02*
X158330000Y-125600000D01*
X81500000Y-67565000D02*
X81500000Y-63065000D01*
X69000000Y-67565000D02*
X69000000Y-63065000D01*
X81500000Y-67565000D02*
X69000000Y-67565000D01*
X81500000Y-63065000D02*
X69000000Y-63065000D01*
X69490000Y-48670000D02*
X69490000Y-38770000D01*
X69490000Y-38770000D02*
X73990000Y-38770000D01*
X73990000Y-38770000D02*
X73990000Y-48670000D01*
X73990000Y-48670000D02*
X69490000Y-48670000D01*
X75840000Y-38770000D02*
X80340000Y-38770000D01*
X75840000Y-48670000D02*
X75840000Y-38770000D01*
X80340000Y-48670000D02*
X75840000Y-48670000D01*
X80340000Y-38770000D02*
X80340000Y-48670000D01*
X63140000Y-48670000D02*
X63140000Y-38770000D01*
X63140000Y-38770000D02*
X67640000Y-38770000D01*
X67640000Y-38770000D02*
X67640000Y-48670000D01*
X67640000Y-48670000D02*
X63140000Y-48670000D01*
X79950000Y-58250000D02*
X79950000Y-62750000D01*
X70050000Y-58250000D02*
X79950000Y-58250000D01*
X70050000Y-62750000D02*
X70050000Y-58250000D01*
X79950000Y-62750000D02*
X70050000Y-62750000D01*
X79950000Y-56130000D02*
X70050000Y-56130000D01*
X70050000Y-56130000D02*
X70050000Y-51630000D01*
X70050000Y-51630000D02*
X79950000Y-51630000D01*
X79950000Y-51630000D02*
X79950000Y-56130000D01*
X156600000Y-73270000D02*
X156600000Y-61170000D01*
X151000000Y-73270000D02*
X156600000Y-73270000D01*
X151000000Y-61170000D02*
X151000000Y-73270000D01*
X156600000Y-61170000D02*
X151000000Y-61170000D01*
X177240000Y-61170000D02*
X171640000Y-61170000D01*
X171640000Y-61170000D02*
X171640000Y-73270000D01*
X171640000Y-73270000D02*
X177240000Y-73270000D01*
X177240000Y-73270000D02*
X177240000Y-61170000D01*
X127940000Y-128760000D02*
X127940000Y-124260000D01*
X137840000Y-128760000D02*
X127940000Y-128760000D01*
X137840000Y-124260000D02*
X137840000Y-128760000D01*
X127940000Y-124260000D02*
X137840000Y-124260000D01*
M02*
