M48
;DRILL file {KiCad (2017-08-09 revision 8a1a3ed36)-makepkg} date 07/19/18 13:50:08
;FORMAT={-:-/ absolute / inch / decimal}
FMAT,2
INCH,TZ
T1C0.016
T2C0.020
T3C0.028
T4C0.031
T5C0.035
T6C0.035
T7C0.039
T8C0.039
T9C0.047
T10C0.050
T11C0.051
T12C0.059
T13C0.060
T14C0.071
T15C0.126
T16C0.126
%
G90
G05
M72
T1
X1.14Y-2.44
X2.37Y-5.87
X3.2677Y-3.3465
X4.3701Y-4.3701
X4.3701Y-5.0787
X4.3701Y-5.4331
X4.68Y-2.1208
X4.685Y-4.9606
X4.7244Y-3.6614
X4.7244Y-3.9173
X4.7244Y-4.0354
X4.7244Y-4.1929
X4.7244Y-5.2953
X4.725Y-4.1
X4.75Y-5.0969
X4.76Y-4.96
X4.7638Y-1.4961
X4.7638Y-1.6142
X4.7638Y-1.7323
X4.7657Y-1.4114
X4.8228Y-5.1575
X4.84Y-4.1142
X4.8425Y-3.6614
X4.8425Y-3.937
X4.8425Y-4.0354
X4.8425Y-4.1929
X4.8819Y-1.2598
X4.9016Y-4.9606
X4.9409Y-4.1339
X4.9409Y-4.4685
X4.95Y-4.2
X4.95Y-4.25
X4.95Y-4.3
X4.95Y-4.35
X4.95Y-4.4
X4.9606Y-3.6614
X4.9803Y-3.937
X4.9803Y-4.0354
X4.9803Y-4.7441
X4.9892Y-2.3
X5.Y-1.1811
X5.Y-4.15
X5.Y-4.2
X5.Y-4.25
X5.Y-4.3
X5.Y-4.35
X5.Y-4.4
X5.Y-4.45
X5.0394Y-3.6614
X5.0394Y-5.2362
X5.04Y-5.1181
X5.05Y-4.15
X5.05Y-4.2
X5.05Y-4.25
X5.05Y-4.3
X5.05Y-4.35
X5.05Y-4.4
X5.05Y-4.45
X5.0787Y-3.937
X5.0787Y-4.0354
X5.0939Y-2.9859
X5.0994Y-4.5179
X5.1Y-4.15
X5.1Y-4.2
X5.1Y-4.25
X5.1Y-4.3
X5.1Y-4.35
X5.1Y-4.4
X5.1Y-4.45
X5.1378Y-5.2362
X5.15Y-4.15
X5.15Y-4.2
X5.15Y-4.25
X5.15Y-4.3
X5.15Y-4.35
X5.15Y-4.4
X5.15Y-4.45
X5.1555Y-1.4173
X5.1575Y-1.1811
X5.1772Y-3.937
X5.1772Y-4.0354
X5.1883Y-3.0152
X5.1969Y-3.5827
X5.2Y-4.15
X5.2Y-4.2
X5.2Y-4.25
X5.2Y-4.3
X5.2Y-4.35
X5.2Y-4.4
X5.2Y-4.45
X5.2005Y-4.8894
X5.2362Y-5.0787
X5.25Y-2.5992
X5.25Y-4.2
X5.25Y-4.25
X5.25Y-4.3
X5.25Y-4.35
X5.25Y-4.4
X5.2559Y-4.1339
X5.2559Y-4.4685
X5.2561Y-1.7599
X5.2756Y-3.5827
X5.2756Y-3.7008
X5.2756Y-3.8189
X5.2756Y-3.937
X5.2756Y-4.0354
X5.3051Y-2.7949
X5.3051Y-2.41
X5.315Y-1.1811
X5.315Y-1.4173
X5.315Y-4.7638
X5.315Y-4.8819
X5.315Y-5.2953
X5.3207Y-2.5096
X5.3543Y-5.0787
X5.3543Y-5.1575
X5.3567Y-3.016
X5.3937Y-2.3133
X5.3937Y-3.5827
X5.3937Y-3.7008
X5.3937Y-3.8189
X5.3937Y-3.937
X5.3937Y-4.0354
X5.3937Y-4.1339
X5.3937Y-4.2126
X5.3937Y-4.2913
X5.4331Y-4.7638
X5.4331Y-4.8819
X5.4331Y-5.2953
X5.44Y-2.72
X5.4724Y-1.1811
X5.4724Y-1.4173
X5.4724Y-1.5748
X5.4724Y-5.0787
X5.4856Y-2.7141
X5.5054Y-3.0209
X5.5118Y-3.5827
X5.5118Y-3.7008
X5.5118Y-3.8189
X5.5118Y-3.937
X5.5118Y-4.0551
X5.5118Y-4.1339
X5.5118Y-4.2126
X5.5118Y-4.2913
X5.56Y-2.8516
X5.6277Y-5.2895
X5.6299Y-1.1811
X5.6299Y-1.4173
X5.6299Y-1.5748
X5.6299Y-1.8504
X5.66Y-3.5768
X5.6812Y-2.6112
X5.7087Y-1.7323
X5.7087Y-1.9685
X5.745Y-3.9254
X5.7874Y-1.1811
X5.7874Y-1.4173
X5.7874Y-1.5748
X5.7874Y-1.8504
X5.7874Y-2.7165
X5.7874Y-5.1916
X5.8268Y-3.2283
X5.8661Y-1.7323
X5.8661Y-2.7953
X5.9Y-3.45
X5.9Y-3.8587
X5.9055Y-2.5984
X5.9449Y-1.1811
X5.9449Y-1.4173
X5.9449Y-1.5748
X5.9449Y-1.8504
X5.9449Y-2.874
X5.9843Y-2.0866
X5.9843Y-2.4803
X6.0236Y-1.7323
X6.0236Y-2.6378
X6.0619Y-3.1861
X6.063Y-2.874
X6.063Y-2.9921
X6.063Y-3.1102
X6.1024Y-1.1811
X6.1024Y-1.4173
X6.1024Y-1.5748
X6.1024Y-1.8504
X6.1024Y-1.9685
X6.1024Y-2.0866
X6.1024Y-2.4803
X6.1417Y-2.6378
X6.1787Y-3.0999
X6.1811Y-1.7323
X6.1811Y-2.874
X6.1811Y-2.9921
X6.1933Y-4.7085
X6.1942Y-4.9282
X6.1985Y-5.1766
X6.2006Y-3.6142
X6.24Y-4.0308
X6.24Y-4.1292
X6.2598Y-1.1811
X6.2598Y-1.4173
X6.2598Y-1.5748
X6.2598Y-1.8504
X6.2598Y-1.9685
X6.2598Y-2.0472
X6.2931Y-4.34
X6.2992Y-2.874
X6.2992Y-2.9921
X6.2992Y-3.2283
X6.319Y-3.13
X6.3386Y-1.7323
X6.3544Y-2.29
X6.38Y-4.06
X6.3807Y-2.3661
X6.3931Y-3.69
X6.4173Y-1.1811
X6.4173Y-1.4173
X6.4173Y-1.5748
X6.4173Y-1.8504
X6.4173Y-1.9685
X6.4173Y-2.0472
X6.4173Y-2.874
X6.4173Y-2.9921
X6.4173Y-3.1299
X6.4173Y-3.2283
X6.4225Y-2.4025
X6.4551Y-2.2894
X6.47Y-2.66
X6.4799Y-3.2677
X6.4961Y-1.7323
X6.4961Y-2.4803
X6.5354Y-2.874
X6.5354Y-2.9921
X6.5551Y-2.2894
X6.5551Y-3.1299
X6.5551Y-3.2283
X6.5722Y-2.0447
X6.5748Y-1.1811
X6.5748Y-1.4173
X6.5748Y-1.5748
X6.5748Y-1.8504
X6.5748Y-1.9685
X6.6142Y-2.4803
X6.6319Y-4.5232
X6.6535Y-1.7323
X6.6535Y-1.9291
X6.6535Y-2.9921
X6.6658Y-3.6908
X6.6732Y-3.1299
X6.6732Y-3.2283
X6.6929Y-2.2047
X6.6929Y-2.874
X6.7323Y-1.1811
X6.7323Y-1.4173
X6.7323Y-1.5748
X6.7323Y-1.8504
X6.7323Y-2.126
X6.7323Y-2.4803
X6.76Y-3.3566
X6.7717Y-2.6378
X6.7717Y-3.1299
X6.7717Y-3.2283
X6.7817Y-6.05
X6.8085Y-2.8715
X6.811Y-1.7717
X6.8504Y-2.4803
X6.8504Y-3.0315
X6.8511Y-3.3994
X6.8701Y-3.1299
X6.8878Y-1.4193
X6.8879Y-2.87
X6.8898Y-1.1811
X6.8898Y-1.5748
X6.92Y-3.19
X6.93Y-3.03
X6.9319Y-5.8362
X6.9685Y-1.8504
X6.9685Y-2.4803
X6.9685Y-3.1299
X6.98Y-4.7894
X6.9819Y-5.2331
X7.03Y-3.7068
X7.04Y-5.035
X7.0472Y-1.1811
X7.0472Y-1.4173
X7.0472Y-1.5748
X7.0472Y-1.8504
X7.0472Y-3.2283
X7.0569Y-5.4831
X7.0774Y-4.9031
X7.0811Y-5.1802
X7.0866Y-2.9528
X7.1Y-3.34
X7.126Y-1.8504
X7.1331Y-5.985
X7.136Y-3.59
X7.1654Y-2.9528
X7.1654Y-3.1496
X7.1654Y-3.2283
X7.1806Y-5.1399
X7.2047Y-1.1811
X7.2047Y-1.4173
X7.2047Y-1.5748
X7.2047Y-1.9685
X7.2358Y-3.0501
X7.2835Y-2.0079
X7.2835Y-3.2283
X7.2835Y-3.9067
X7.285Y-5.5958
X7.285Y-5.6942
X7.3228Y-2.9921
X7.35Y-2.3
X7.3622Y-2.1654
X7.3935Y-4.8918
X7.4016Y-3.2283
X7.4263Y-2.7659
X7.43Y-2.53
X7.4409Y-1.1811
X7.4409Y-2.0472
X7.4409Y-2.1654
X7.4409Y-2.2835
X7.4409Y-2.9134
X7.4409Y-2.9921
X7.4409Y-3.0709
X7.4469Y-3.53
X7.4469Y-3.63
X7.4606Y-4.8425
X7.4738Y-2.5641
X7.4858Y-2.2304
X7.49Y-2.74
X7.5004Y-2.4873
X7.5013Y-2.7907
X7.5069Y-5.511
X7.51Y-3.2283
X7.55Y-2.66
X7.5535Y-3.63
X7.5552Y-2.7148
X7.5591Y-2.9134
X7.5591Y-2.9921
X7.5591Y-3.0709
X7.62Y-3.2283
X7.625Y-3.9762
X7.6378Y-2.126
X7.6575Y-1.2992
X7.6772Y-2.9134
X7.6772Y-2.9921
X7.6772Y-3.0709
X7.7165Y-2.0866
X7.7165Y-2.2047
X7.72Y-2.71
X7.72Y-3.2
X7.7297Y-2.6141
X7.7434Y-2.3752
X7.7559Y-1.2992
X7.7559Y-1.4961
X7.78Y-2.83
X7.7953Y-5.0236
X7.7998Y-2.459
X7.8Y-2.51
X7.8Y-2.561
X7.8032Y-2.3999
X7.8144Y-4.258
X7.8346Y-2.0079
X7.8346Y-2.0866
X7.8346Y-2.2047
X7.8689Y-2.6159
X7.88Y-5.18
X7.91Y-3.2
X7.9134Y-1.2992
X7.9134Y-1.4961
X7.9134Y-2.9921
X7.9134Y-3.06
X7.92Y-5.5386
X7.935Y-3.8787
X7.9388Y-3.3341
X7.9528Y-2.0079
X7.9528Y-2.0866
X7.9528Y-2.1654
X7.9528Y-2.7559
X7.96Y-4.0908
X7.96Y-4.1892
X8.0008Y-2.285
X8.0315Y-2.7559
X8.0333Y-3.0112
X8.0709Y-1.8504
X8.0709Y-1.9685
X8.0709Y-2.0866
X8.0709Y-2.1654
X8.11Y-2.95
X8.1102Y-1.4567
X8.1102Y-1.5748
X8.1102Y-1.6535
X8.1102Y-2.874
X8.12Y-6.23
X8.126Y-2.6811
X8.1687Y-3.1062
X8.189Y-1.2992
X8.189Y-1.378
X8.189Y-1.4567
X8.2677Y-1.5748
X8.2677Y-1.6535
X8.28Y-4.0268
X8.3071Y-1.2205
X8.3071Y-1.2992
X8.3071Y-1.8898
X8.3071Y-1.9488
X8.3071Y-2.0079
X8.3071Y-2.0669
X8.3071Y-2.126
X8.3071Y-2.2047
X8.3248Y-2.9941
X8.3465Y-1.4961
X8.3465Y-1.5748
X8.3465Y-1.6535
X8.3969Y-1.15
X8.4055Y-1.8898
X8.4055Y-1.9488
X8.4055Y-2.0079
X8.4055Y-2.0669
X8.4055Y-2.126
X8.4055Y-2.2047
X8.4252Y-1.3976
X8.4252Y-1.4961
X8.4252Y-1.5748
X8.4252Y-1.6535
X8.4567Y-2.9961
X8.4646Y-2.2638
X8.4646Y-2.7559
X8.476Y-6.1752
X8.5039Y-1.2598
X8.5039Y-1.3976
X8.5039Y-1.4961
X8.5039Y-1.5748
X8.5039Y-1.6535
X8.5039Y-1.8898
X8.5039Y-1.9488
X8.5039Y-2.0079
X8.5039Y-2.0669
X8.5039Y-2.126
X8.5039Y-2.2047
X8.5039Y-2.3228
X8.56Y-5.9792
X8.56Y-6.1108
X8.58Y-3.3555
X8.6024Y-2.3228
X8.62Y-4.88
X8.622Y-1.9291
X8.622Y-2.0079
X8.622Y-2.0866
X8.6305Y-4.3733
X8.6306Y-5.9156
X8.6327Y-5.8166
X8.6329Y-5.9665
X8.633Y-4.7595
X8.7008Y-2.3228
X8.7598Y-2.1457
X8.7598Y-2.2244
X8.7992Y-2.3228
X8.8192Y-5.7787
X8.8353Y-6.0939
X8.8887Y-5.9164
X8.8976Y-1.9291
X8.8976Y-2.0866
X8.9038Y-5.9671
X8.906Y-5.7236
X8.9156Y-0.9169
X8.9173Y-2.3228
X8.9182Y-5.2337
X8.9944Y-5.8287
X8.9961Y-1.811
X9.0157Y-2.0079
X9.0157Y-2.0866
X9.0157Y-2.1654
X9.0157Y-2.2441
X9.0157Y-2.3228
X9.0945Y-1.2205
X9.0945Y-1.2992
X9.0945Y-1.378
X9.0945Y-2.874
X9.0945Y-2.9921
X9.1052Y-3.3294
X9.1732Y-1.2205
X9.1732Y-1.2992
X9.1732Y-1.378
X9.2Y-2.88
X9.2126Y-1.5354
X9.2126Y-1.6535
X9.2126Y-1.7717
X9.2126Y-2.9921
X9.252Y-1.2205
X9.252Y-1.2992
X9.252Y-1.378
X9.252Y-1.4567
X9.28Y-4.25
X9.2913Y-1.9685
X9.311Y-2.7559
X9.311Y-3.0709
X9.3307Y-1.2205
X9.3307Y-1.2992
X9.3307Y-1.378
X9.3307Y-1.5354
X9.3307Y-1.6535
X9.3307Y-1.7717
X9.3391Y-5.6534
X9.3668Y-3.6808
X9.4291Y-2.7559
X9.4291Y-2.874
X9.4488Y-1.1811
X9.4488Y-1.2992
X9.4608Y-2.3991
X9.4668Y-3.54
X9.4868Y-4.64
X9.4934Y-3.0438
X9.4934Y-3.2382
X9.5276Y-1.1811
X9.5276Y-2.9724
X9.5472Y-2.4606
X9.5472Y-2.874
X9.5669Y-2.7165
X9.626Y-2.9724
X9.6457Y-1.1811
X9.6457Y-2.7953
X9.685Y-2.4606
X9.72Y-3.06
X9.7244Y-2.874
X9.7638Y-1.1811
X9.7638Y-1.2992
X9.7638Y-1.4173
X9.7638Y-1.5354
X9.7835Y-3.1102
X9.8031Y-1.6535
X9.8031Y-1.9685
X9.8031Y-2.0866
X9.8031Y-2.2047
X9.8031Y-2.3228
X9.8031Y-2.4409
X9.8031Y-2.9528
X9.86Y-3.18
X9.8819Y-1.1811
X9.8819Y-1.5354
X9.8819Y-3.0315
X9.9213Y-2.5591
X9.9606Y-3.1102
X10.0394Y-2.5591
X10.0787Y-1.5748
X10.0787Y-2.1654
X10.1575Y-2.5591
T2
X10.063Y-1.1024
X10.0907Y-1.0355
X10.0907Y-1.1692
X10.1575Y-1.0079
X10.1575Y-1.1969
X10.2243Y-1.0355
X10.2243Y-1.1692
X10.252Y-1.1024
X1.0079Y-1.1024
X1.0355Y-1.0355
X1.0355Y-1.1692
X1.1024Y-1.0079
X1.1024Y-1.1969
X1.1692Y-1.0355
X1.1692Y-1.1692
X1.1969Y-1.1024
X10.0622Y-6.1417
X10.0899Y-6.0749
X10.0899Y-6.2085
X10.1567Y-6.0472
X10.1567Y-6.2362
X10.2235Y-6.0749
X10.2235Y-6.2085
X10.2512Y-6.1417
X4.2362Y-1.1024
X4.2639Y-1.0355
X4.2639Y-1.1692
X4.3307Y-1.0079
X4.3307Y-1.1969
X4.3975Y-1.0355
X4.3975Y-1.1692
X4.4252Y-1.1024
X1.0079Y-6.1417
X1.0355Y-6.0749
X1.0355Y-6.2085
X1.1024Y-6.0472
X1.1024Y-6.2362
X1.1692Y-6.0749
X1.1692Y-6.2085
X1.1969Y-6.1417
X4.6291Y-1.1024
X4.6568Y-1.0355
X4.6568Y-1.1692
X4.7236Y-1.0079
X4.7236Y-1.1969
X4.7904Y-1.0355
X4.7904Y-1.1692
X4.8181Y-1.1024
X4.6291Y-6.1417
X4.6568Y-6.0749
X4.6568Y-6.2085
X4.7236Y-6.0472
X4.7236Y-6.2362
X4.7904Y-6.0749
X4.7904Y-6.2085
X4.8181Y-6.1417
X4.2362Y-6.1417
X4.2639Y-6.0749
X4.2639Y-6.2085
X4.3307Y-6.0472
X4.3307Y-6.2362
X4.3975Y-6.0749
X4.3975Y-6.2085
X4.4252Y-6.1417
T3
X8.0244Y-5.4287
X8.1244Y-5.4287
X8.2244Y-5.4287
X8.4244Y-5.4287
X8.5244Y-5.4287
X8.6244Y-5.4287
X8.7244Y-5.4287
T4
X2.815Y-2.5429
X3.1102Y-2.6
X8.3138Y-0.6193
X8.3138Y-0.7193
X8.4138Y-0.6193
X8.4138Y-0.7193
X8.5138Y-0.6193
X8.5138Y-0.7193
X8.6138Y-0.6193
X8.6138Y-0.7193
X6.7819Y-5.2394
X6.7819Y-5.3394
X6.7819Y-5.4394
X7.5Y-4.6
X8.25Y-2.4
X8.25Y-2.5
X8.25Y-2.6
X8.25Y-2.7
X8.25Y-2.8
X7.7819Y-5.3
X7.9819Y-5.79
X6.4Y-3.56
X5.1351Y-2.4792
X8.6Y-1.15
X8.6Y-1.25
X8.6Y-1.35
X8.6Y-1.45
X8.9Y-1.15
X8.9Y-1.25
X8.9Y-1.35
X8.9Y-1.45
X8.88Y-3.5287
X8.88Y-3.6287
X8.88Y-3.7287
X9.18Y-3.5287
X9.18Y-3.6287
X9.18Y-3.7287
X8.88Y-4.6287
X8.88Y-4.7287
X8.88Y-4.8287
X9.18Y-4.6287
X9.18Y-4.7287
X9.18Y-4.8287
X6.7819Y-4.8394
X6.7819Y-4.9394
X6.7819Y-5.0394
X9.1844Y-5.7787
X9.1844Y-5.8787
X9.1844Y-5.9787
X7.16Y-5.84
X8.7519Y-6.15
X9.4344Y-5.8787
X9.4344Y-6.1787
X9.5344Y-5.8787
X9.5344Y-6.1787
X9.6344Y-5.8787
X9.6344Y-6.1787
X9.7344Y-5.8787
X9.7344Y-6.1787
X5.14Y-1.96
X7.35Y-1.6
X7.35Y-1.9
X7.45Y-1.6
X7.45Y-1.9
X7.55Y-1.6
X7.55Y-1.9
X7.65Y-1.6
X7.65Y-1.9
X7.75Y-1.6
X7.75Y-1.9
X7.85Y-1.6
X7.85Y-1.9
X7.95Y-1.6
X7.95Y-1.9
X8.2614Y-0.9843
X8.6614Y-0.9843
X6.0551Y-2.55
X6.0551Y-2.7421
X6.2319Y-5.2894
X6.2319Y-5.3894
X6.2319Y-5.4894
X6.2319Y-5.5894
X6.2319Y-5.6894
X6.2319Y-5.7894
X6.2319Y-5.8894
X6.2319Y-5.9894
X6.5319Y-5.2894
X6.5319Y-5.3894
X6.5319Y-5.4894
X6.5319Y-5.5894
X6.5319Y-5.6894
X6.5319Y-5.7894
X6.5319Y-5.8894
X6.5319Y-5.9894
X9.52Y-4.18
X9.52Y-4.28
X9.52Y-4.38
X9.82Y-4.18
X9.82Y-4.28
X9.82Y-4.38
X7.465Y-5.88
X7.465Y-5.98
X7.465Y-6.08
X6.7811Y-5.6624
X6.7811Y-5.7624
X6.7811Y-5.8624
X5.9843Y-5.9024
X5.9843Y-6.0024
X5.9843Y-6.1024
X7.4319Y-4.08
X8.97Y-6.26
X4.7Y-4.8507
X7.0795Y-2.5638
X6.257Y-2.649
X7.2819Y-4.1287
X7.2819Y-4.5287
X6.8677Y-2.55
X6.8677Y-2.7421
X8.8185Y-0.6193
X8.8185Y-0.7193
X8.9185Y-0.6193
X8.9185Y-0.7193
X9.0185Y-0.6193
X9.0185Y-0.7193
X9.1185Y-0.6193
X9.1185Y-0.7193
X9.1319Y-1.5
X9.1319Y-1.6
X9.1319Y-1.7
X9.1319Y-1.8
X9.1319Y-1.9
X9.1319Y-2.
X9.1319Y-2.1
X9.1319Y-2.2
X9.4319Y-1.5
X9.4319Y-1.6
X9.4319Y-1.7
X9.4319Y-1.8
X9.4319Y-1.9
X9.4319Y-2.
X9.4319Y-2.1
X9.4319Y-2.2
X5.9843Y-5.2894
X5.9843Y-5.3894
X5.9843Y-5.4894
X7.68Y-3.63
X7.685Y-5.98
X9.3419Y-5.45
X5.985Y-4.79
X5.92Y-3.56
X5.16Y-3.13
X7.2819Y-3.6287
X7.2819Y-4.0287
T5
X9.9448Y-1.6622
X9.9448Y-1.7712
X9.9448Y-1.8803
X9.9448Y-1.9894
X9.9448Y-2.0984
X10.0448Y-1.7167
X10.0448Y-1.8258
X10.0448Y-1.9348
X10.0448Y-2.0439
T6
X5.7819Y-4.7894
X5.7819Y-4.8894
X4.7244Y-3.4564
X4.8244Y-3.4564
X7.44Y-5.14
X7.54Y-5.14
X4.7244Y-5.4
X4.8244Y-5.4
X8.7047Y-1.7717
X8.7047Y-1.9291
X8.7047Y-2.0866
X8.815Y-1.7717
X8.815Y-1.9291
X8.815Y-2.0866
X8.14Y-3.53
X8.24Y-3.53
X9.1744Y-5.1787
X9.2744Y-5.1787
X9.22Y-3.34
X9.32Y-3.34
X4.7244Y-3.7958
X4.8244Y-3.7958
T7
X7.85Y-1.2
X7.85Y-1.3772
T8
X6.85Y-2.1531
X6.95Y-2.1531
X7.05Y-2.1531
X7.15Y-2.1531
X7.25Y-2.1531
T9
X10.0787Y-5.648
X10.0787Y-5.748
X10.05Y-2.6744
X10.05Y-2.8122
X10.05Y-2.95
X10.05Y-3.0878
X10.05Y-3.2256
X1.49Y-0.9881
X1.49Y-1.87
X10.05Y-3.7244
X10.05Y-3.8622
X10.05Y-4.
X10.05Y-4.1378
X10.05Y-4.2756
X1.49Y-2.0681
X1.49Y-2.95
X8.6299Y-1.6339
X8.6299Y-2.2244
X8.8898Y-1.6339
X8.8898Y-2.2244
X2.815Y-6.063
X2.9528Y-6.063
X3.0906Y-6.063
X5.0984Y-5.3807
X5.2362Y-5.3807
X5.374Y-5.3807
T10
X8.7795Y-2.874
T11
X3.8976Y-1.4
X3.8976Y-2.8799
X2.0079Y-1.4
X2.0079Y-2.8799
T12
X2.6528Y-1.2
X2.9528Y-1.2
X3.2528Y-1.2
X1.1417Y-3.189
X1.1417Y-3.489
X1.1417Y-3.789
X1.1417Y-4.089
X1.1417Y-4.389
X1.1417Y-4.689
X1.1417Y-4.989
X1.1417Y-5.289
T13
X8.6545Y-2.749
X8.6545Y-2.999
X8.9045Y-2.749
X8.9045Y-2.999
T14
X10.2272Y-2.5957
X10.2272Y-3.3043
X10.2272Y-3.6457
X10.2272Y-4.3543
X2.7362Y-6.2402
X3.1693Y-6.2402
X5.0197Y-5.5579
X5.4528Y-5.5579
T15
X1.1024Y-1.1024
X1.1024Y-6.1417
X4.7236Y-1.1024
X4.7236Y-6.1417
X4.3307Y-6.1417
X10.1575Y-1.1024
X10.1567Y-6.1417
X4.3307Y-1.1024
T16
X9.9948Y-1.3884
X9.9948Y-2.3722
T0
M30
